<?xml version="1.0" encoding="UTF-8" standalone="no"?>
<!-- Created with Inkscape (http://www.inkscape.org/) -->

<svg
   xmlns:dc="http://purl.org/dc/elements/1.1/"
   xmlns:cc="http://creativecommons.org/ns#"
   xmlns:rdf="http://www.w3.org/1999/02/22-rdf-syntax-ns#"
   xmlns:svg="http://www.w3.org/2000/svg"
   xmlns="http://www.w3.org/2000/svg"
   xmlns:xlink="http://www.w3.org/1999/xlink"
   xmlns:sodipodi="http://sodipodi.sourceforge.net/DTD/sodipodi-0.dtd"
   xmlns:inkscape="http://www.inkscape.org/namespaces/inkscape"
   width="148.42584mm"
   height="128.55951mm"
   viewBox="0 0 148.42584 128.55951"
   version="1.1"
   id="svg8"
   inkscape:version="0.92.4 (5da689c313, 2019-01-14)"
   sodipodi:docname="logo.svg">
  <defs
     id="defs2">
    <filter
       height="1.5"
       width="1.5"
       y="-0.25"
       x="-0.25"
       id="b">
      <feGaussianBlur
         id="feGaussianBlur3713"
         stdDeviation="3"
         result="blur"
         in="SourceAlpha" />
      <feColorMatrix
         id="feColorMatrix3715"
         values="1 0 0 0 0 0 1 0 0 0 0 0 1 0 0 0 0 0 0.6 0"
         result="bluralpha" />
      <feOffset
         id="feOffset3717"
         result="offsetBlur"
         in="bluralpha"
         dy="3"
         dx="3" />
      <feMerge
         id="feMerge3723">
        <feMergeNode
           id="feMergeNode3719"
           in="offsetBlur" />
        <feMergeNode
           id="feMergeNode3721"
           in="SourceGraphic" />
      </feMerge>
    </filter>
    <filter
       height="1.5"
       width="1.5"
       y="-0.25"
       x="-0.25"
       id="g">
      <feTurbulence
         id="feTurbulence3726"
         baseFrequency="0.031541218637992828 0.16200716845878138" />
      <feColorMatrix
         id="feColorMatrix3728"
         values="2 0 0 0 0 0 0 0 0 0 0 0 0 0 0 0 0 0 0.5 0.5"
         result="result91" />
      <feDisplacementMap
         id="feDisplacementMap3730"
         xChannelSelector="R"
         scale="21.5873"
         result="fbSourceGraphic"
         in2="result91"
         in="SourceGraphic"
         yChannelSelector="A" />
      <feColorMatrix
         id="feColorMatrix3732"
         values="0 0 0 -1 0 0 0 0 -1 0 0 0 0 -1 0 0 0 0 1 0"
         result="fbSourceGraphicAlpha"
         in="fbSourceGraphic" />
      <feGaussianBlur
         id="feGaussianBlur3734"
         stdDeviation="1"
         result="blur"
         in="fbSourceGraphicAlpha" />
      <feColorMatrix
         id="feColorMatrix3736"
         values="1 0 0 0 0 0 1 0 0 0 0 0 1 0 0 0 0 0 0.4 0"
         result="bluralpha" />
      <feOffset
         id="feOffset3738"
         result="offsetBlur"
         in="bluralpha"
         dy="3"
         dx="3" />
      <feMerge
         id="feMerge3744">
        <feMergeNode
           id="feMergeNode3740"
           in="offsetBlur" />
        <feMergeNode
           id="feMergeNode3742"
           in="fbSourceGraphic" />
      </feMerge>
    </filter>
    <filter
       height="1.5"
       width="1.5"
       y="-0.25"
       x="-0.25"
       id="i">
      <feTurbulence
         id="feTurbulence3747"
         baseFrequency="0.017204301075268821 0.1032258064516129" />
      <feColorMatrix
         id="feColorMatrix3749"
         values="2 0 0 0 0 0 0 0 0 0 0 0 0 0 0 0 0 0 0.5 0.5"
         result="result91" />
      <feDisplacementMap
         id="feDisplacementMap3751"
         xChannelSelector="R"
         scale="15.873"
         result="fbSourceGraphic"
         in2="result91"
         in="SourceGraphic"
         yChannelSelector="A" />
      <feColorMatrix
         id="feColorMatrix3753"
         values="0 0 0 -1 0 0 0 0 -1 0 0 0 0 -1 0 0 0 0 1 0"
         result="fbSourceGraphicAlpha"
         in="fbSourceGraphic" />
      <feGaussianBlur
         id="feGaussianBlur3755"
         stdDeviation="1"
         result="blur"
         in="fbSourceGraphicAlpha" />
      <feColorMatrix
         id="feColorMatrix3757"
         values="1 0 0 0 0 0 1 0 0 0 0 0 1 0 0 0 0 0 0.4 0"
         result="bluralpha" />
      <feOffset
         id="feOffset3759"
         result="offsetBlur"
         in="bluralpha"
         dy="3"
         dx="3" />
      <feMerge
         id="feMerge3765">
        <feMergeNode
           id="feMergeNode3761"
           in="offsetBlur" />
        <feMergeNode
           id="feMergeNode3763"
           in="fbSourceGraphic" />
      </feMerge>
    </filter>
    <filter
       height="1.5"
       width="1.5"
       y="-0.25"
       x="-0.25"
       id="j">
      <feTurbulence
         id="feTurbulence3768"
         seed="85"
         baseFrequency="0.04157706093189964 0.13476702508960575" />
      <feColorMatrix
         id="feColorMatrix3770"
         values="2 0 0 0 0 0 0 0 0 0 0 0 0 0 0 0 0 0 0.5 0.5"
         result="result91" />
      <feDisplacementMap
         id="feDisplacementMap3772"
         xChannelSelector="R"
         scale="16.8254"
         result="fbSourceGraphic"
         in2="result91"
         in="SourceGraphic"
         yChannelSelector="A" />
      <feColorMatrix
         id="feColorMatrix3774"
         values="0 0 0 -1 0 0 0 0 -1 0 0 0 0 -1 0 0 0 0 1 0"
         result="fbSourceGraphicAlpha"
         in="fbSourceGraphic" />
      <feGaussianBlur
         id="feGaussianBlur3776"
         stdDeviation="1"
         result="blur"
         in="fbSourceGraphicAlpha" />
      <feColorMatrix
         id="feColorMatrix3778"
         values="1 0 0 0 0 0 1 0 0 0 0 0 1 0 0 0 0 0 0.4 0"
         result="bluralpha" />
      <feOffset
         id="feOffset3780"
         result="offsetBlur"
         in="bluralpha"
         dy="3"
         dx="3" />
      <feMerge
         id="feMerge3786">
        <feMergeNode
           id="feMergeNode3782"
           in="offsetBlur" />
        <feMergeNode
           id="feMergeNode3784"
           in="fbSourceGraphic" />
      </feMerge>
    </filter>
    <filter
       height="1.5"
       width="1.5"
       y="-0.25"
       x="-0.25"
       id="h">
      <feTurbulence
         id="feTurbulence3789"
         baseFrequency="0.02548476454293629 0.1032258064516129" />
      <feColorMatrix
         id="feColorMatrix3791"
         values="2 0 0 0 0 0 0 0 0 0 0 0 0 0 0 0 0 0 0.5 0.5"
         result="result91" />
      <feDisplacementMap
         id="feDisplacementMap3793"
         xChannelSelector="R"
         scale="15.873"
         result="fbSourceGraphic"
         in2="result91"
         in="SourceGraphic"
         yChannelSelector="A" />
      <feColorMatrix
         id="feColorMatrix3795"
         values="0 0 0 -1 0 0 0 0 -1 0 0 0 0 -1 0 0 0 0 1 0"
         result="fbSourceGraphicAlpha"
         in="fbSourceGraphic" />
      <feGaussianBlur
         id="feGaussianBlur3797"
         stdDeviation="1"
         result="blur"
         in="fbSourceGraphicAlpha" />
      <feColorMatrix
         id="feColorMatrix3799"
         values="1 0 0 0 0 0 1 0 0 0 0 0 1 0 0 0 0 0 0.4 0"
         result="bluralpha" />
      <feOffset
         id="feOffset3801"
         result="offsetBlur"
         in="bluralpha"
         dy="3"
         dx="3" />
      <feMerge
         id="feMerge3807">
        <feMergeNode
           id="feMergeNode3803"
           in="offsetBlur" />
        <feMergeNode
           id="feMergeNode3805"
           in="fbSourceGraphic" />
      </feMerge>
    </filter>
    <linearGradient
       id="a">
      <stop
         id="stop3810"
         offset="0"
         stop-color="#b47b3b" />
      <stop
         id="stop3812"
         offset="1"
         stop-color="#e5d3b4" />
    </linearGradient>
    <linearGradient
       gradientUnits="userSpaceOnUse"
       y2="332.97"
       y1="406.34"
       x2="91.511002"
       x1="174.85001"
       id="f">
      <stop
         id="stop3815"
         offset="0"
         stop-color="#eac17f" />
      <stop
         id="stop3817"
         offset="1"
         stop-color="#f2dabb" />
    </linearGradient>
    <linearGradient
       xlink:href="#a"
       gradientUnits="userSpaceOnUse"
       y2="382.14001"
       y1="292.26001"
       x2="0"
       id="e" />
    <linearGradient
       xlink:href="#a"
       gradientUnits="userSpaceOnUse"
       y2="483.20999"
       y1="454.22"
       x2="4649.2998"
       x1="4642.7998"
       id="d" />
    <linearGradient
       xlink:href="#a"
       gradientUnits="userSpaceOnUse"
       y2="295.48999"
       y1="261.78"
       x2="4413.8999"
       x1="4395.7002"
       id="c" />
    <clipPath
       id="r">
      <path
         id="path4203"
         d="m -1285.2,631.32 h 656.56 v 461.19 h -656.56 z"
         inkscape:connector-curvature="0" />
    </clipPath>
    <clipPath
       id="q">
      <path
         id="path4206"
         d="m -1327.5,228.25 h 621.47 v 1097.1 h -621.47 z"
         inkscape:connector-curvature="0" />
    </clipPath>
    <filter
       id="a-1">
      <feTurbulence
         id="feTurbulence4209"
         seed="252"
         result="result1"
         numOctaves="2"
         baseFrequency="0.39113300492610836 0" />
      <feDisplacementMap
         id="feDisplacementMap4211"
         in2="result1"
         yChannelSelector="G"
         xChannelSelector="G"
         scale="88.01843"
         result="result11"
         in="SourceGraphic" />
      <feTurbulence
         id="feTurbulence4213"
         result="result1"
         numOctaves="2"
         baseFrequency="0.19605911330049264 0.030541871921182268" />
      <feColorMatrix
         id="feColorMatrix4215"
         values="0 0 0 0 0 0 1 0 0 0 1 0 0 0 0 0 0 0 1 0"
         result="result15" />
      <feComposite
         id="feComposite4217"
         result="result12"
         operator="in"
         in2="result11"
         in="result15" />
      <feBlend
         id="feBlend4219"
         mode="multiply"
         in2="result11" />
      <feGaussianBlur
         id="feGaussianBlur4221"
         stdDeviation="0.01 4.196773399014778" />
    </filter>
    <filter
       id="p">
      <feTurbulence
         id="feTurbulence4224"
         seed="252"
         result="result1"
         numOctaves="7"
         baseFrequency="0.15903614457831328 0" />
      <feDisplacementMap
         id="feDisplacementMap4226"
         in2="result1"
         yChannelSelector="R"
         xChannelSelector="R"
         scale="0.23041"
         result="result11"
         in="SourceGraphic" />
      <feTurbulence
         id="feTurbulence4228"
         result="result1"
         numOctaves="2"
         baseFrequency=".4" />
      <feColorMatrix
         id="feColorMatrix4230"
         values="0 0 0 0 0 0 1 0 0 0 1 0 0 0 0 0 0 0 1 0"
         result="result15" />
      <feComposite
         id="feComposite4232"
         result="result12"
         operator="in"
         in2="result11"
         in="result15" />
      <feBlend
         id="feBlend4234"
         mode="multiply"
         in2="result11" />
      <feGaussianBlur
         id="feGaussianBlur4236"
         stdDeviation="0.01 1.8999999999999999" />
    </filter>
    <filter
       id="m">
      <feGaussianBlur
         id="feGaussianBlur4239"
         stdDeviation="13.05706" />
    </filter>
    <filter
       height="1.2849"
       width="1.1516"
       y="-0.14246"
       x="-0.075819999"
       id="o">
      <feGaussianBlur
         id="feGaussianBlur4242"
         stdDeviation="16.7894" />
    </filter>
    <filter
       height="2.0204"
       width="1.2819999"
       y="-0.51019001"
       x="-0.14097001"
       id="n">
      <feGaussianBlur
         id="feGaussianBlur4245"
         stdDeviation="12.75469" />
    </filter>
    <linearGradient
       gradientUnits="userSpaceOnUse"
       y2="305.42999"
       y1="113.85"
       x2="725.34003"
       x1="101.64"
       id="l">
      <stop
         id="stop4248"
         offset="0"
         stop-color="#fff" />
      <stop
         id="stop4250"
         offset="1"
         stop-color="#483c3c" />
    </linearGradient>
    <linearGradient
       gradientUnits="userSpaceOnUse"
       y2="1227.7"
       y1="746.89001"
       x2="-1151.1"
       x1="-952.85999"
       id="k">
      <stop
         id="stop4253"
         offset="0"
         stop-color="#1d370b" />
      <stop
         id="stop4255"
         offset="1"
         stop-color="#63ff00" />
    </linearGradient>
    <linearGradient
       gradientUnits="userSpaceOnUse"
       y2="1211.3"
       y1="990.03003"
       x2="-1344"
       x1="-1126.7"
       id="j-2">
      <stop
         id="stop4258"
         offset="0"
         stop-color="#8a0" />
      <stop
         id="stop4260"
         offset="1"
         stop-opacity=".9646"
         stop-color="#fff" />
    </linearGradient>
    <linearGradient
       gradientUnits="userSpaceOnUse"
       y2="614.58002"
       y1="548.87"
       x2="-641.31"
       x1="-224.48"
       id="i-7">
      <stop
         id="stop4263"
         offset="0"
         stop-color="#502e04" />
      <stop
         id="stop4265"
         offset="1"
         stop-opacity="0"
         stop-color="#502e04" />
    </linearGradient>
    <linearGradient
       gradientUnits="userSpaceOnUse"
       gradientTransform="matrix(0.99987,-0.016219,0.016219,0.99987,8.3328,-48.719)"
       y2="716.37"
       y1="707.91998"
       x2="-335.48001"
       x1="-567.44"
       id="h-0">
      <stop
         id="stop4268"
         offset="0"
         stop-color="#fff" />
      <stop
         id="stop4270"
         offset="1"
         stop-color="#520" />
    </linearGradient>
    <linearGradient
       gradientUnits="userSpaceOnUse"
       y2="497.69"
       y1="557.69"
       x2="-481.39999"
       x1="-207.71001"
       id="g-1">
      <stop
         id="stop4273"
         offset="0"
         stop-color="#7c3607" />
      <stop
         id="stop4275"
         offset="1"
         stop-opacity="0"
         stop-color="#7c3607" />
    </linearGradient>
    <linearGradient
       gradientUnits="userSpaceOnUse"
       y2="584.83002"
       y1="567.69"
       x2="-258.54001"
       x1="-536.28003"
       id="f-8">
      <stop
         id="stop4278"
         offset="0"
         stop-color="#e8d0c1" />
      <stop
         id="stop4280"
         offset="1"
         stop-color="#c87137" />
    </linearGradient>
    <linearGradient
       gradientUnits="userSpaceOnUse"
       y2="510.54001"
       y1="513.40002"
       x2="-669.96997"
       x1="-316.28"
       id="e-9">
      <stop
         id="stop4283"
         offset="0"
         stop-color="#a40" />
      <stop
         id="stop4285"
         offset="1"
         stop-opacity="0"
         stop-color="#fff" />
    </linearGradient>
    <linearGradient
       spreadMethod="reflect"
       gradientUnits="userSpaceOnUse"
       y2="584.45001"
       y1="642.95001"
       x2="-944.02002"
       x1="-990.22998"
       id="d-6">
      <stop
         id="stop4288"
         offset="0"
         stop-color="#fff" />
      <stop
         id="stop4290"
         offset="1"
         stop-opacity="0"
         stop-color="#fff" />
    </linearGradient>
    <linearGradient
       spreadMethod="reflect"
       gradientUnits="userSpaceOnUse"
       y2="435.92999"
       y1="513.65997"
       x2="-1072.4"
       x1="-1172.1"
       id="c-8">
      <stop
         id="stop4293"
         offset="0"
         stop-color="#fff" />
      <stop
         id="stop4295"
         offset="1"
         stop-opacity=".27434"
         stop-color="#fff" />
    </linearGradient>
    <radialGradient
       gradientUnits="userSpaceOnUse"
       gradientTransform="matrix(1.1364,-6.1868e-8,5.795e-8,1.0644,-49.997,-21.881)"
       r="377.14001"
       cy="339.81"
       cx="366.64999"
       id="b-4">
      <stop
         id="stop4298"
         offset="0"
         stop-color="#e3640f" />
      <stop
         id="stop4300"
         offset="1"
         stop-color="#520" />
    </radialGradient>
    <filter
       id="i-3">
      <feGaussianBlur
         id="feGaussianBlur4559"
         stdDeviation="1.08899" />
    </filter>
    <linearGradient
       id="b-7">
      <stop
         id="stop4562"
         offset="0" />
      <stop
         id="stop4564"
         offset="1"
         stop-opacity="0" />
    </linearGradient>
    <linearGradient
       id="a-7">
      <stop
         id="stop4567"
         offset="0"
         stop-opacity=".74902"
         stop-color="#fff" />
      <stop
         id="stop4569"
         offset="1"
         stop-opacity="0"
         stop-color="#fff" />
    </linearGradient>
    <linearGradient
       xlink:href="#b-7"
       gradientUnits="userSpaceOnUse"
       y2="327.81"
       y1="336.37"
       x2="358.85001"
       x1="350.72"
       id="d-66" />
    <linearGradient
       xlink:href="#a-7"
       gradientUnits="userSpaceOnUse"
       gradientTransform="matrix(1.0182,-0.031794,0.03064,0.9812,248.5,191.29)"
       y2="145.34"
       y1="138.24001"
       x2="103.69"
       x1="110.05"
       id="e-6" />
    <linearGradient
       xlink:href="#a-7"
       gradientUnits="userSpaceOnUse"
       gradientTransform="matrix(1.1879,-0.035264,0.025189,0.76682,265.96,191.04)"
       y2="167.94"
       y1="103.57"
       x2="54.321999"
       x1="42.498001"
       id="f-9" />
    <linearGradient
       xlink:href="#a-7"
       gradientUnits="userSpaceOnUse"
       gradientTransform="matrix(1.1482,-0.034084,0.030664,0.93348,252.43,191.06)"
       y2="111.24"
       y1="84.016998"
       x2="60.491001"
       x1="57.667999"
       id="g-9" />
    <linearGradient
       xlink:href="#b-7"
       gradientUnits="userSpaceOnUse"
       y2="296.54999"
       y1="375.76999"
       x2="293.04001"
       x1="411.95001"
       id="h-9" />
    <radialGradient
       gradientUnits="userSpaceOnUse"
       gradientTransform="matrix(1.1767,-0.065706,0.062292,1.0082,242.27,193.3)"
       fy="90.418999"
       fx="69.987"
       r="27.959"
       cy="105.94"
       cx="61.563999"
       id="c-2">
      <stop
         id="stop4577"
         offset="0"
         stop-opacity=".57047"
         stop-color="#fff" />
      <stop
         id="stop4579"
         offset="1"
         stop-opacity=".89933"
         stop-color="#96b0c6" />
    </radialGradient>
  </defs>
  <sodipodi:namedview
     id="base"
     pagecolor="#ffffff"
     bordercolor="#666666"
     borderopacity="1.0"
     inkscape:pageopacity="0.0"
     inkscape:pageshadow="2"
     inkscape:zoom="0.7"
     inkscape:cx="276.59949"
     inkscape:cy="281.00993"
     inkscape:document-units="mm"
     inkscape:current-layer="layer1"
     showgrid="false"
     inkscape:window-width="1920"
     inkscape:window-height="1017"
     inkscape:window-x="-8"
     inkscape:window-y="-8"
     inkscape:window-maximized="1"
     fit-margin-top="0"
     fit-margin-left="0"
     fit-margin-right="0"
     fit-margin-bottom="0" />
  <metadata
     id="metadata5">
    <rdf:RDF>
      <cc:Work
         rdf:about="">
        <dc:format>image/svg+xml</dc:format>
        <dc:type
           rdf:resource="http://purl.org/dc/dcmitype/StillImage" />
        <dc:title></dc:title>
      </cc:Work>
    </rdf:RDF>
  </metadata>
  <g
     inkscape:label="Layer 1"
     inkscape:groupmode="layer"
     id="layer1"
     transform="translate(-32.649719,-48.350104)">
    <g
       id="g4335"
       transform="matrix(0.15756178,0,0,0.15756178,46.67216,52.332934)">
      <path
         style="fill:url(#b-4);stroke:#8a4914;stroke-width:6.31699991;stroke-linecap:round"
         id="path4305"
         d="m -10.495,15.521 h 754.29 v 648.57 h -754.29 z"
         inkscape:connector-curvature="0" />
      <path
         id="path4307"
         d="m 65.486,75.147 h 610.6 v 534.43 h -610.6 z"
         inkscape:connector-curvature="0"
         style="fill:url(#l);stroke:#59450b;stroke-width:6.1724;stroke-linecap:round" />
      <path
         id="path4309"
         d="m -1311.5,729.39 h 757.36 v 420.22 h -757.36 z"
         transform="matrix(0.80787,0,0,0.79139,1122.1,-301.9)"
         inkscape:connector-curvature="0"
         style="fill:url(#k);filter:url(#p)" />
      <path
         style="opacity:0.32105001;fill:#784421;filter:url(#a-1)"
         id="path4311"
         clip-path="url(#q)"
         d="m -811.57,1271.9 c -204.28,0.1072 -595.11,53.689 -550.34,-274.44 24.733,-181.28 -14.912,-194.65 307.31,-110.8 256.46,59.612 239.12,-0.10739 209.7,75.064 -26.331,67.276 259.16,337.51 33.341,310.18 z"
         transform="matrix(0.9825,0,0,0.38407,1369.7,95.828)"
         inkscape:connector-curvature="0" />
      <path
         style="opacity:0.82631998;fill:url(#j-2);filter:url(#a-1)"
         id="path4313"
         clip-path="url(#r)"
         d="m -964.29,1066.6 c -219.03,4.2321 -410.65,14.607 -343.95,-78.264 67.974,-94.639 -13.864,-63.881 308.35,19.97 256.46,59.612 278.5,2.1965 240.43,44.985 -22.194,24.945 22.944,20.634 -204.83,13.308 z"
         transform="matrix(0.93,0,0,0.85558,1260.7,-326.33)"
         inkscape:connector-curvature="0" />
      <path
         id="path4315"
         d="m -540,793.79 c 0,16.56 -126.43,60.333 -108.57,30 9.9124,-16.833 -97.369,-16.14 -108.57,-30 -12.302,-15.221 48.64,-30 108.57,-30 59.93,0 108.57,13.44 108.57,30 z"
         transform="matrix(0.75472,0,0,1.4234,1068,-788.66)"
         inkscape:connector-curvature="0"
         style="fill:#241f1c;filter:url(#n)" />
      <g
         id="g4327"
         transform="matrix(0.36347,0,0,0.33726,658.1,60.578)">
        <path
           style="fill:none;stroke:url(#i-7);stroke-width:6.03499985"
           id="path4317"
           d="m -360.11,745.56 v -70.661 c 12.166,-15.125 23.268,-30.583 36.098,-45.499 23.355,-12.264 41.883,-30.17 73.625,-34.328 23.857,-5.8769 58.773,-7.0163 73.129,9.0578 14.935,7.0594 -4.7697,27.085 -6.1211,23.242 14.604,4.7322 7.7192,-14.561 17.163,-2.9856 -15.93,-7.2488 -5.0811,-25.787 12.901,-14.874 12.793,7.9496 -18.254,-7.3693 3.6473,-4.594 -16.021,6.9985 -53.362,-5.9142 -30.539,-15.956 14.035,-3.7304 28.67,3.709 37.834,-2.4523 11.743,1.2214 -1.1716,-3.3962 6.6748,-6.7525 -4.5673,-0.77334 -9.7791,12.822 -23.927,8.9081 -20.648,-7.0384 24.016,-8.329 22.476,-15.432 17.343,-7.452 -24.857,14.198 -12.535,-0.44951 10.423,-2.5117 -8.4309,-5.735 -2.3602,2.1837 -10.517,16.366 -46.298,21.321 -70.124,15.035 4.0405,-11.33 32.039,-21.384 51.629,-16.5 4.9236,5.6902 11.684,-5.2891 16.352,-1.6934 -7.4277,3.5856 -33.331,0.20612 -16.559,-4.6612 -12.411,10.856 -45.276,5.2518 -17.992,-4.8318 6.1182,-2.0011 24.199,-1.2758 7.4389,-1.4021 -2.7285,-7.262 9.7228,-7.7045 -1.8249,-1.0172 -8.6701,11.856 -21.342,-9.871 -13.84,2.9942 -1.9864,17.31 -29.231,27.903 -53.128,32.802 -18.87,8.7969 -29.512,-2.7754 -17.125,-12.682 10.998,-16.244 40.939,-27.686 68.945,-23.703 7.0239,2.8265 23.653,3.5457 6.9165,0.64665 -22.641,-6.3253 27.827,-16.489 22.771,-15.957 -25.795,8.3203 -4.6517,-22.545 13.949,-13.75 14.192,5.5386 9.994,2.3842 -1.2873,-0.46743 -11.236,-1.321 -31.79,11.549 -28.851,-2.761 -7.7315,3.005 -11.882,-6.2548 -3.6202,1.0498 20.019,11.733 -1.9641,30.877 -25.326,31.64 -29.338,-1.2305 1.0315,-22.86 16.687,-23.874 -5.722,1.0016 -13.136,-1.0632 -15.884,5.5145 -18.675,-0.0317 1.1216,-20.735 -1.3155,-26.124 2.5341,7.2398 -9.8536,22.281 -12.803,7.1621 -22.478,-6.8589 12.849,5.5741 7.9119,14.533 2.9216,15.742 -17.994,30.491 -40.51,35.119 -11.662,-11.078 -9.1626,-32.567 11.511,-40.894 11.986,-5.707 14.78,-0.40622 0.95878,-1.1686 -6.716,-0.0881 -9.3055,12.81 -16.801,3.2114 -1.801,-6.3005 11.113,18.287 -8.3176,13.5 -16.993,-11.429 -20.934,-34.646 5.7416,-42.126 7.5253,-4.1197 31.629,2.0224 11.085,-2.2368 2.2817,-5.7416 12.921,-10.68 2.7352,-16.303 16.363,11.047 -22.877,29.795 -23.052,11.926 1.2934,-4.3633 16.915,-11.362 3.0378,-3.9595 -1.1737,5.2986 -6.6279,32.294 -24.683,18.277 -4.7648,-1.1692 -7.0416,-11.038 -5.9729,-2.7135 -21.49,-2.6473 -37.782,-11.099 -56.453,-15.784 5.4552,5.0041 50.21,10.557 25.577,16.606 -14.961,7.1455 17.172,-7.8762 26.871,-2.1605 17.447,0.14683 35.848,28.036 10.281,22.857 -16.423,-4.4683 -23.394,-19.863 -19.107,-26.705 -3.3386,5.6169 0.85636,16.701 -14.308,8.2886 -10.898,-4.5611 -8.8284,-9.3167 -6.393,-0.60822 -4.7679,-0.19691 -18.434,-2.6895 -10.24,0.13533 13.165,-2.9525 46.259,7.0344 32.718,13.559 -24.605,1.8788 -57.212,-19.469 -32.062,-31.498 13.778,-3.4584 9.8145,-4.4475 -0.72239,-0.2935 -1.6362,8.1281 -15.264,3.0189 -12.113,-0.77271 9.4998,7.5152 3.6195,19.095 -13.323,12.351 -15.018,1.1702 24.661,-3.1854 20.414,7.0796 1.7298,8.8818 -16.828,1.9356 0.083,4.1639 16.401,0.75545 22.152,13.67 1.6189,13.942 -12.555,2.9343 -25.02,-9.3541 -32.676,-8.1846 11.523,-0.32031 19.066,11.939 2.9392,8.9448 13.788,-4.1237 38.067,-0.82948 24.449,10.692 5.4875,9.97 -4.6503,-13.044 8.7664,-13.421 29.24,-12.04 68.267,2.7089 78.71,21.504 12.733,21.252 3.0226,47.086 -25.287,61.656 -11.365,4.7952 -31.615,24.784 -34.648,6.9007 -1.2849,-12.801 -5.7697,-25.658 0.33278,-38.254 4.6563,-17.111 27.368,-34.111 57.281,-32.523 21.154,0.0491 46.981,12.824 35.867,26.984 -6.0868,8.4104 4.9564,-5.5989 9.9705,4.7743 -11.304,-2.0454 -9.069,-22.355 6.607,-10.697 6.8864,6.1506 -3.3753,19.689 3.9318,6.2259 -2.6664,-8.541 -43.276,-21.079 -10.458,-21.449 7.8594,-7.7425 11.954,-3.4902 -1.5187,-0.96472 -17.03,7.7011 -47.296,-8.6241 -19.12,-13.108 10.223,0.36711 29.399,-5.134 26.961,-9.2233 -5.1782,3.9483 -23.812,14.97 -26.157,3.9988 2.7732,-5.0804 27.949,-6.7235 8.3492,-4.4068 -11.932,1.5122 -7.2003,-13.674 -6.1479,-1.3335 3.9228,13.511 -27.924,25.6 -44.528,17.056 3.4314,-12.709 25.108,-26.81 47.407,-24.219 -5.9609,0.69215 17.322,-15.37 4.1249,-5.8942 -15.424,14.138 -32.939,-3.6896 -10.028,-10.261 3.9526,-1.947 18.982,-5.8058 6.0882,-2.8608 -2.3356,-8.1006 -12.777,15.144 -19.784,1.3549 -22.104,-10.166 17.442,4.727 4.8555,12.585 -0.84302,10.65 -34.427,19.485 -20.877,3.3491 7.3151,-8.9098 7.8656,-3.8144 -2.0764,0.51514 -9.0434,-14.063 6.8357,11.749 -3.1817,16.736 -6.1851,12.164 -40.015,33.752 -47.638,10.883 -4.5994,-14.475 4.179,-33.106 30.413,-36.008 24.365,-10.537 -17.84,10.742 -12.124,-3.5432 9.3357,-1.3791 -15.975,23.842 -22.527,8.0348 -7.8736,-6.3863 6.8307,-25.542 8.2968,-21.007 -16.786,11.712 -16.775,-15.239 -18.362,-11.61 3.5698,10.72 -5.6299,5.7933 -14.281,3.1605 -21.089,1.9066 16.123,-2.2867 18.509,6.9888 16.745,9.5457 -5.5454,24.824 -11.293,7.2555 -5.0046,-4.5975 -0.0783,-10.484 -5.6278,-5.1874 5.3288,4.0387 9.0857,11.88 -6.1848,7.4931 -11.243,0.21621 24.138,0.85808 25.545,7.9648 17.507,6.764 9.699,39.847 -10.536,21.749 -8.6587,-5.4545 1.8581,-20.376 -1.8692,-19.589 10.541,5.6035 -12.796,10.768 1.2297,15.869 -4.4727,6.6638 -23.215,0.91582 -4.5232,3.4426 29.463,6.8951 38.199,31.308 24.184,47.676 -0.81576,6.3792 -8.6395,16.675 -15.492,5.5246 -21.716,-10.847 -32.041,-30.915 -22.676,-47.294 3.0795,-6.4958 28.398,-17.516 28.457,-14.225 -16.117,7.3923 -4.491,-15.117 -8.746,-1.8156 -10.885,16.553 -29.017,-0.89809 -17.982,-11.072 -2.3074,-7.9639 31.222,-12.712 15.332,-8.8994 -14.627,-1.6143 3.565,-12.235 -6.8122,-8.1519 4.762,-2.7576 -1.9841,20.016 -10.252,9.1662 0.26266,-5.676 13.161,-11.056 0.9091,-3.6811 1.8327,2.345 3.1133,25.644 -12.264,14.692 -5.0512,-3.4196 -6.5822,-12.433 -5.6573,-3.5436 -9.6661,1.1222 -14.973,-14.316 -9.3692,-3.4562 23.796,3.7625 43.531,32.22 17.266,38.361 -22.096,-1.5422 -8.3556,-30.969 -11.003,-26.237 -4.8877,6.0092 -4.4664,8.4065 -3.5726,14.446 -14.559,6.6033 -37.201,-19.778 -22.388,-5.9351 -3.7784,6.9923 -35.812,9.5452 -10.066,4.3994 31.287,-4.2257 59.995,15.78 56.434,34.704 -13.383,6.6966 -39.878,-2.809 -46.132,-13.286 -10.653,-4.5318 2.2113,-23.866 -5.3186,-11.052 -11.702,0.32264 -9.0208,-9.4509 -2.4414,0.41297 16.949,16.457 -20.538,9.979 -16.408,5.8979 14.976,5.6785 -19.73,13.559 -8.1039,12.429 5.188,-13.935 54.229,-4.4805 36.577,4.2784 -13.961,3.6166 -30.996,-6.0772 -41.108,-2.697 14.688,-2.0386 26.188,5.8395 6.9269,9.3082 -7.4377,3.7487 -37.617,-7.6445 -26.764,-4.465 9.6762,10.307 -40.896,9.5657 -10.438,8.8131 8.5985,-4.7953 40.519,-10.023 28.189,2.6219 -9.9866,5.954 -28.411,8.7574 -27.601,19.42 -1.6475,-9.5158 23.084,-18.154 24.702,-12.886 3.4141,-18.739 40.45,-24.562 65.407,-20.016 29.18,4.6095 55.338,20.74 57.57,39.963 6.6505,15.48 3.3905,32.166 -11.7,45.362 -9.4693,6.4388 -14.362,29.176 -27.545,13.179 -7.9429,-14.503 -26.525,-26.1 -29.448,-41.64 -4.7063,-17.06 -2.4999,-36.954 21.903,-48.047 21.208,-13.345 50.858,-8.0973 71.207,2.6769 17.173,6.8363 -30.961,-8.0684 -6.7056,-11.929 12.309,3.0552 -0.60505,-6.83 14.255,-7.5724 13.387,-3.2232 -13.445,7.2425 -18.471,8.7465 -23.036,7.4286 -30.528,-6.0306 -13.695,-9.4376 -17.109,-0.84891 16.58,-16.517 -1.3565,-6.9603 -11.462,-6.2435 5.2388,13.213 -10.554,13.593 -11.974,8.7512 -43.897,8.9283 -31.442,-7.1063 5.3674,-15.128 39.061,-23.41 57.035,-11.252 -14.73,-2.9325 -0.68498,-8.5525 3.1575,-5.3069 -9.9483,3.5186 -36.761,-2.8123 -14.676,-6.1758 3.2845,-7.4506 -22.793,16.922 -31.046,4.0323 3.0337,-7.0766 14.641,-11.885 0.62249,-4.6823 10.169,3.7173 -19.561,29.283 -22.931,9.9988 2.2016,-5.123 2.4001,-18.504 1.3595,-5.9465 -1.7183,10.855 -20.519,-6.7912 -9.9746,3.6243 25.892,6.3368 18.3,30.135 4.4591,41.454 -15.714,20.835 -41.749,-1.9054 -45.679,-14.868 -10.909,-10.732 21.646,-25 19.07,-27.955 -0.41061,6.9592 -19.49,13.831 -21.149,3.5612 20.46,10.13 -13.214,21.224 -11.575,3.0182 -0.10059,-5.4649 11.244,-15.509 -0.13199,-5.7846 -9.8212,-7.9422 -2.4296,-7.198 0.50134,1.125 2.105,12.813 -15.265,0.0439 -22.291,3.3137 -2.5913,-2.996 28.913,4.0569 30.346,11.42 14.646,9.9723 4.9891,25.516 -17.656,17.556 -10.562,0.80895 -36.609,-22.189 -20.859,-8.314 2.9714,6.3089 -15.975,-1.2332 -0.3307,2.0994 33.94,4.7999 -13.637,18.746 -26.341,8.2869 -11.805,-2.8375 -8.9481,-10.5 -3.3165,-1.402 -5.2007,7.7702 -18.841,3.5503 -15.584,11.586 -3.0695,-11.341 44.551,-12.039 32.67,3.2331 -5.0016,5.7834 -31.036,10.627 -28.124,10.764 16.019,-5.8104 -2.8179,12.757 7.7856,0.73197 4.1294,-14.404 28.099,-0.61303 10.402,5.8058 -8.6829,4.9522 -12.961,3.7284 -4.57,8.6403 -0.9146,5.1119 -15.073,14.49 -2.9786,5.4921 9.0418,0.85083 -4.2591,-20.823 16.285,-13.809 6.5489,2.73 -5.2055,21.854 2.0976,10.178 -7.628,-14.02 -10.187,-35.437 17.316,-41.416 31.022,-7.855 65.717,7.9566 69.911,27.694 2.4194,10.234 5.614,32.804 -18.069,20.183 -23.705,-7.0632 -48.981,-20.444 -47.269,-38.342 -2.1328,-6.7818 16.811,-22.04 0.96575,-11.979 -12.399,-7.0442 1.6333,-17.97 -8.9278,-21.788 -3.1506,-12.752 -1.3045,4.0348 5.3396,8.372 0.64032,13.061 -16.244,-2.6431 -16.161,-3.9781 -7.605,5.5419 20.363,7.6778 19.194,17.393 10.277,10.85 -12.355,24.993 -23.64,10.744 -11.136,-1.6976 -0.44621,-22.455 -7.8423,-10.564 6.36,6.2899 8.1835,16.978 -9.0136,12.352 -8.0769,-0.19226 -22.543,-4.7593 -7.3235,-0.68521 -2.1848,7.3919 -37.658,6.1769 -12.445,4.1162 23.556,-6.3949 56.037,-4.4562 68.216,11.554 11.59,7.3802 5.8169,18.663 -12.414,14.732 -22.913,3.781 -56.313,-4.9118 -48.813,-22.525 -1.4997,-4.4435 -7.4874,-8.435 -1.7235,-0.38817 4.5404,8.4942 -11.226,7.2254 -15.13,1.8224 -7.4827,4.0638 19.82,1.3436 18.726,10.553 7.8948,16.856 -37.172,-5.7702 -16.396,4.2617 -1.7501,5.0251 -19.611,19.119 -7.9112,6.4757 11.077,-12.292 65.253,-1.9173 31.509,8.4824 -18.723,6.0196 -47.008,6.8495 -61.173,-4.3955 22.553,6.1143 -24.361,7.4302 0.0627,6.0774 11.229,-2.7684 34.789,6.0607 10.502,6.9426 -8.715,-2.5673 8.9069,7.8543 -5.7796,6.8258 8.7486,-1.0622 15.014,-15.703 31.587,-11.928 26.283,3.1673 -12.472,27.483 -29.346,19.375 -7.5179,-6.3523 -19.136,-5.8398 -6.3604,-1.52 14.973,3.296 -19.1,10.378 -6.786,9.3341 2.7108,-16.761 45.737,-0.47121 11.663,2.3658 -1.2638,-1.9323 15.33,1.0388 13.343,-5.8344 7.0966,-11.796 27.656,-5.4189 18.131,-2.0684 2.2832,-16.265 19.851,-30.112 46.399,-32.535 27.347,-5.7304 55.39,-0.50536 78.458,9.2026 23.773,9.9524 29.126,29.532 44.367,43.928 7.152,14.287 2.2777,29.619 3.7123,44.381 v 30.567 z"
           inkscape:connector-curvature="0" />
        <path
           style="fill:url(#h-0)"
           id="path4319"
           d="m -321.48,619.66 c 0.16052,9.8956 -11.269,64.433 0.44368,100.69 2.8761,8.9023 53.604,5.5685 69.367,12.555 10.983,4.868 -42.254,4.0165 -34.89,11.696 10.524,10.974 56.444,21.864 55.157,24.23 -1.1542,2.0957 -9.625,6.0058 -20.152,6.5442 -8.0567,0.4121 -34.46,1.7064 -42.567,-4.1566 -8.8171,-6.3769 4.9047,29.07 -3.5973,29.46 -11.392,0.5221 -26.89,-42.533 -33.715,-45.595 -10.807,-4.8489 -13.77,12.475 -25.542,12.933 -15.14,0.5889 -37.025,23.271 -43.279,26.605 -11.726,6.2514 12.329,-39.364 5.9902,-36.491 -28.214,12.785 -49.467,9.6762 -55.592,5.3639 -5.8459,-6.4112 74.276,-29.027 73.357,-56.768 -1.0582,-31.94 0.29166,-66.887 2.0743,-79.204 1.3332,-25.121 37.1,-18.805 52.943,-7.8577 z"
           inkscape:connector-curvature="0" />
        <path
           style="fill:url(#g-1)"
           id="path4321"
           d="m -282.74,622.65 c -12.271,19.99 -32.357,37.313 -55.644,36.75 -22.989,-12.924 -6.4879,-48.742 14.619,-52.749 13.4,-9.0592 48.71,-25.962 51.4,0.7535 -2.1959,5.9416 -6.6647,10.404 -10.375,15.246 z m 80.309,-48.871 c -26.494,2.941 -51.354,16.014 -78.234,15.983 3.2538,-27.413 35.774,-15.086 53.007,-14.699 13.39,3.3844 42.577,19.76 44.805,-0.61227 -5.895,-3.9916 -13.21,-1.4696 -19.578,-0.67115 z m 49.584,34.905 c -10.734,-17.057 -39.26,-34.163 -49.568,-7.8623 -17.972,8.3549 -0.25592,-12.191 8.9836,-10.234 12.008,-4.6694 48.545,-3.5609 40.585,18.096 z m -7.9142,-23.475 c 0.2122,25.551 -31.75,3.966 -45.819,7.5684 -16.191,-4.6094 -9.8324,-26.891 6.3912,-21.401 12.685,-0.7909 37.811,-7.625 37.096,12.706 l 2.3325,1.1264 z m 14.969,-20.428 c 5.65,10.731 -24.663,2.5451 -32.226,0.35075 -9.742,-2.0282 -38.096,5.9104 -17.782,-7.328 16.98,-7.5538 35.24,4.1924 52.497,-1.5842 10.484,-0.33567 0.85107,6.9324 -2.4892,8.5614 z m -10.486,6.6136 c 20.554,4.4386 11.176,-34.766 -5.0263,-18.623 -22.263,-3.5182 -43.998,7.4334 -60.567,22.524 -18.865,3.0839 -14.154,-17.516 2.924,-9.4802 18.231,3.184 36.666,15.466 55.31,7.5731 l 3.703,-0.89884 3.6568,-1.0957 z m 13.03,-19.16 c -21.824,11.299 -47.279,-1.7914 -69.122,9.4236 -17.656,-3.0745 9.2749,-8.3663 15.125,-9.7414 18.968,2.3918 39.217,-6.9294 56.598,-3.543 l -0.50284,1.6204 -2.0982,2.2404 z m -14.86,-19.868 c -21.399,6.2711 -38.692,26.424 -62.017,23.41 -13.051,-3.5136 0.51829,-35.73 2.6826,-11.446 10.751,20.663 36.108,2.6298 49.348,-6.4931 3.2821,-1.9212 6.6452,-3.6746 9.9866,-5.4715 z m -61.99,47.298 c 23.586,7.3366 13.23,-39.507 -4.3681,-19.518 -19.664,2.9237 -40.723,17.016 -57.927,18.524 -8.5484,-22.134 27.101,-34.633 39.189,-19.574 6.2092,8.0769 10.188,25.125 23.105,20.568 z m 42.517,-43.175 c -26.973,-3.4215 -51.309,14.529 -78.094,13.714 1.4468,-26.422 34.493,-8.8856 46.365,-25 7.5974,-3.4718 38.909,-4.1169 31.729,11.285 z m 36.69,-33.641 c -19.906,5.0497 -37.055,26.315 -58.895,18.931 -15.655,-3.3831 -2.1997,-29.931 7.437,-14.357 16.843,1.1663 35.945,3.9289 51.458,-4.574 z m -24.678,24.628 c 4.6798,-26.97 -30.169,-29.9 -47.567,-27.624 -12.459,4.914 -10.363,40.895 -25.559,29.998 9.5412,-14.362 29.792,2.2879 42.71,4.6199 10.401,2.7338 22.5,1.4986 30.417,-6.9936 m -27.401,-15.508 c -17.479,9.9308 -40.752,11.561 -57.71,-0.48754 -0.94031,-25.216 27.056,-8.6672 39.636,-11.127 8.5759,-3.0946 23.713,-3.0335 18.074,11.615 z m 1.4936,6.4305 c 1.8711,-20.497 -21.24,-23.028 -35.267,-21.723 -22.402,-6.5934 -34.607,21.817 -29.504,42.032 4.0444,17.42 25.748,9.6282 37.258,5.914 11.265,-5.0243 23.039,-13.496 27.512,-26.223 z m -32.913,-5.5789 c -8.5,18.879 -22.419,47.771 -46.332,37.765 -24.181,-6.4897 -22.453,-52.264 6.6902,-39.627 14.154,8.6077 29.452,-3.4463 41.441,-1.0564 l -0.40307,1.2646 -1.3958,1.6536 z m -21.42,-6.8338 c 0.0303,11.499 -22.362,-9.0968 -24.154,6.9656 -16.643,16.874 -50.449,-9.4985 -28.063,-27.35 12.281,-12.543 44.788,-22.707 51.473,-0.0426 0.99342,6.7745 -0.37556,13.665 0.74435,20.427 z m 29.468,-42.564 c -16.907,15.717 -39.766,17.977 -57.552,4.8001 -17.519,-7.7911 13.734,-13.113 19.657,-5.7172 11.354,5.4168 28.546,15.344 37.895,0.91716 z m -42.373,18.746 c 23.244,-15.424 -23.141,-36.923 -26.638,-10.636 -10.629,10.119 -37.772,21.201 -42.315,-0.53315 19.538,-4.1607 39.602,2.1332 58.875,4.9601 3.6567,1.4233 7.1309,3.4641 10.078,6.2095 z m -26.553,-1.0698 c -8.2366,-21.995 -33.336,-14.052 -50.398,-16.123 -28.202,-2.1455 1.4862,30.348 14.848,15.359 11.114,-1.0945 36.194,8.6282 38.495,1.1062 -0.34814,-0.28814 -10.979,3.7387 -2.9439,-0.34201 m 15.584,12.036 c 9.9527,11.155 3.6265,-11.352 -6.5259,-3.8258 -15.829,0.46095 -31.709,19.477 -46.83,8.3089 -10.003,-18.396 24.062,-14.991 33.913,-10.753 5.8968,3.3769 15.39,0.22711 19.442,6.2702 z m -4.9034,-4.9195 c -21.213,-3.033 -43.231,-19.109 -64.403,-7.1919 2.3285,13.021 1.3136,11.757 11.998,7.8984 17.939,-1.7786 35.771,14.047 53.229,4.0877 1.5924,-1.2255 0.60839,-3.965 -0.82403,-4.7942 z m -24.175,-22.423 c -16.041,5.3738 -38.326,34.769 -51.644,9.5083 -5.4069,-9.2052 -16.44,-2.1635 -3.0584,0.68184 17.475,2.6308 43.209,8.4909 54.703,-10.19 z m 4.9654,25.954 c -17.249,-16.093 -41.778,-18.569 -63.538,-14.973 -8.159,5.8165 10.131,23.309 -3.6098,23.309 21.918,-9.5115 45.28,10.483 66.908,-0.9472 2.7184,-1.3038 2.8279,-5.8747 0.23935,-7.389 z m -9.9582,15.001 c -19.625,-9.8657 -42.379,-15.691 -63.742,-9.2369 11.047,25.242 36.02,-9.673 52.152,4.6605 3.5483,2.2514 7.3786,4.4089 11.589,4.5765 z m 60.018,4.6363 c -24.139,-18.827 -55.27,-12.168 -83.048,-13.693 28.527,7.8433 38.954,45.387 68.046,52.054 17.254,2.3046 33.165,-27.784 15.002,-38.36 m -2.6112,79.19 c 20.373,-12.597 -3.2958,-49.484 -22.048,-36.12 -19.794,12.961 -34.247,32.787 -51.014,49.572 16.258,14.834 41.803,6.6782 59.252,-1.3037 5.0533,-3.4072 9.6654,-7.5439 13.81,-12.149 z m -36.09,-28.158 c -1.2105,20.413 -16.743,45.329 -38.207,40.093 -21.606,-5.1728 -32.486,-41.015 -12.787,-55.55 13.931,-13.456 41.095,-28.677 55.732,-9.1252 2.5007,8.6155 -3.7482,16.302 -4.7378,24.582 z m 74.196,-27.826 c -24.31,-17.695 -54.412,-6.7869 -81.469,-8.4154 26.628,-0.74908 35.011,37.75 61.36,37.904 13.275,2.3851 35.851,-16.226 20.108,-29.488 z m 20.064,18.751 c -18.925,-12.193 -41.756,4.6043 -60.875,-6.1642 -1.1521,-29.179 38.493,-26.071 49.96,-6.849 4.059,3.9003 7.7017,8.2917 10.915,13.013 m -27.75,-37.665 c -6.4429,5.0483 -1.7898,19.618 -13.836,11.815 -13.412,3.0811 -45.312,9.352 -42.786,-12.518 19.318,-10.122 42.552,2.0591 61.991,-2.2026 -0.59611,2.2827 -3.8731,2.2209 -5.3693,2.9058 z m 5.1856,-12.557 c -19.354,2.9978 -41.644,21.887 -57.329,0.16388 -14.204,6.2599 -6.2213,32.689 9.1501,21.978 17.138,-0.85831 42.937,0.72027 48.179,-22.142 z m -4.6849,-8.8152 c -25.38,1.5746 -42.955,30.234 -69.363,26.358 -17.359,-17.191 12.229,-36.27 27.631,-30.454 13.3,4.2334 27.975,2.7305 41.732,4.096 z m -4.8106,-14.636 c -20.274,4.6987 -41.174,2.9475 -61.706,1.9961 14.488,10.537 35.883,19.338 49.916,3.0273 3.4728,-2.6291 7.4239,-4.9758 11.79,-5.0234 z m -20.772,10.967 c -12.355,17.32 -38.403,7.9662 -54.843,7.0223 -17.595,7.3643 10.861,32.353 23.953,26.175 23.493,1.592 15.435,-29.322 30.89,-33.198 z m -41.969,25.492 c 6.9079,22.794 -26.392,11.582 -37.957,17.14 -24.234,0.10344 -27.994,-35.395 -4.5277,-41.89 15.814,-13.457 52.662,-14.165 44.321,17.072 l -0.79553,3.93 -1.0413,3.748 z m 8.6772,-23.323 c 5.9084,-25.659 -32.643,-16.013 -42.88,-4.654 -13.631,9.1385 -32.766,-8.6136 -14.549,-19.649 20.915,-17.299 41.038,7.0582 49.573,24.781 2.5152,0.95196 5.5152,1.0876 7.8567,-0.47777 z m -32.54,-37.125 c 7.1577,26.846 -32.502,17.469 -40.832,3.1057 -8.5915,-4.6563 -25.299,0.0955 -7.0404,4.4591 15.419,6.6219 42.176,25.6 53.883,7.7162 -1.2748,-5.1086 -10.777,-9.503 -6.0107,-15.281 m -2.192,18.753 c -10.169,18.855 -45.322,-4.3575 -47.702,4.1518 18.146,5.0729 35.824,25.194 55.356,15.936 6.9988,-6.8573 -1.9354,-16.589 -7.654,-20.088 z m 9.9826,17.782 c 3.9405,22.149 -25.965,4.9511 -35.751,17.083 -8.1326,1.9052 -25.522,-1.5709 -20.637,-14.105 8.774,19.456 32.7,17.156 46.665,6.0558 3.6345,-2.4674 6.9543,-5.4924 9.7222,-9.0346 z m 23.129,48.289 c -5.3509,-23.915 -30.603,-31.781 -50.669,-33.596 -18.45,6.4158 -13.296,30.84 -9.8587,46.311 1.2815,27.094 36.843,25.921 51.552,11.75 6.1486,-6.2254 9.2398,-15.472 8.9762,-24.465 z m -39.961,-10.601 c 13.178,19.493 -11.35,45.001 -30.12,36.128 -17.118,-7.992 -39.862,-31.215 -23.593,-51.463 14.195,-14.203 36.848,-21.674 55.025,-13.796 7.1387,8.789 -3.157,19.461 -1.3113,29.131 z m 1.766,-35.122 c -14.184,17.08 -39.295,-0.92214 -55.086,0.21787 -5.4824,-21.128 26.692,-24.325 40.815,-24.387 11.461,0.1918 23.145,12.175 14.271,24.169 z m 2.0405,-24.494 c -12.271,-14.708 -34.503,-2.6178 -50.036,-7.0301 -10.426,3.1147 -18.003,20.95 -0.74523,12.798 16.886,0.0417 38.688,14.199 50.781,-5.7677 z m -0.88338,27.739 c -8.5809,-21.39 -33.45,-20.279 -51.635,-18.955 -25.131,-6.8247 -12.655,25.702 -2.3125,34.855 15.904,7.9325 44.424,10.989 54.197,-7.3676 0.55855,-2.8125 0.41418,-5.7566 -0.24946,-8.5319 z m -26.363,12.057 c -8.1102,-15.375 -29.606,5.5024 -42.91,-4.5211 -7.6677,-1.276 -25.162,6.9894 -6.9122,5.0433 16.532,-0.96227 33.546,-6.2555 49.823,-0.52218 z m 17.911,11.063 c -22.273,-20.103 -52.919,-12.745 -79.501,-13.403 23.111,4.2616 24.072,40.946 48.403,42.69 14.716,4.0438 46.119,-8.6409 31.098,-29.287 z m -32.391,-6.2262 c 14.07,19.664 -15.012,44.237 -32.01,31.19 -8.6094,-4.8246 -18.395,-36.104 -26.526,-22.501 11.365,15.93 30.733,9.0422 45.972,5.9687 6.5021,-1.5789 12.782,-6.838 12.564,-14.657 m -7.8578,17.342 c -20.019,-0.19403 -41.238,-14.921 -60.238,-2.0765 16.457,15.085 40.379,18.877 60.711,11.782 4.1391,-1.7491 7.0632,-12.357 -0.47224,-9.7056 z m -24.386,20.121 c -8.4939,-21.243 -33.744,-12.817 -48.639,-5.63 -10.404,-1.3105 -27.03,13.282 -7.7173,12.561 19.045,0.0961 37.173,-10.737 56.356,-6.9312 m -9.2112,15.095 c -3.2547,-24.917 -30.964,-10.712 -45.624,-13.106 -12.35,-0.47524 -19.256,25.06 -2.2498,12.922 15.792,-5.5178 32.108,6.0396 47.873,0.18421 z m 43.083,-23.671 c -25.148,0.55497 -43.945,23.507 -68.869,25.123 -23.267,-16.138 14.334,-39.968 28.692,-24.283 20.535,3.2476 40.592,12.016 61.65,9.9007 7.5776,-14.166 -15.306,-10.089 -21.473,-10.741 z m 69.617,50.43 c -6.9733,-24.337 -32.104,-37.513 -54.63,-36.162 -17.846,16.68 -4.7576,43.169 0.52756,62.761 10.085,19.958 37.238,14.957 48.197,-1.3917 5.2881,-6.904 8.0836,-16.383 5.9053,-25.208 m -34.596,60.009 c 20.846,-10.836 -16.795,-32.496 -22.391,-11.518 -13.218,14.581 -49.507,21.049 -44.922,-9.6366 8.3436,-23.328 35.34,-17.271 47.591,-1.4675 7.5483,6.3848 15.293,13.243 19.722,22.622 m -21.193,-81.36 c -3.8082,21.171 -21.229,47.252 -43.952,38.98 -20.166,-7.5396 -25.345,-43.872 -3.9323,-53.408 17.134,-9.077 44.219,-17.642 59.782,-8.097 0.78934,9.742 -11.936,12.931 -11.898,22.525 z m 73.225,-15.023 c -22.103,-5.8009 -44.561,-16.531 -67.724,-11.236 -6.296,7.4074 12.454,9.4332 3.3472,1.8846 14.105,-15.453 46.789,-23.101 57.047,0.2197 1.6352,3.6423 3.8049,7.3327 7.3295,9.1314 z m -19.963,-22.13 c -7.9941,-0.97878 4.1865,10.665 -6.4332,4.1602 -19.119,0.17402 -39.556,10.303 -57.681,-0.49307 19.619,-8.8978 43.572,9.9361 60.547,-7.967 3.2396,-0.34866 11.862,-0.84942 3.5666,4.2998 z m -33.547,-4.2817 c -1.984,23.641 -31.894,11.197 -45.947,16.792 -21.553,-8.5105 -3.492,-40.242 15.318,-31.775 10.394,-0.4632 37.051,-5.5358 35.923,9.0974 -1.9956,1.6636 -4.3552,3.1889 -5.2937,5.8859 z m 34.516,-21.795 c -12.6,20.519 -42.094,15.596 -59.122,5.4881 -4.3538,-20.438 24.204,-3.4697 34.571,-4.4913 8.1375,1.2446 16.584,1.4947 24.55,-0.99677 z m -41.625,7.3668 c 13.733,-1.7547 -7.5558,-23.094 -14.841,-11.455 -14.51,3.36 -28.745,26.03 -43.806,12.035 17.715,5.1233 34.336,2.5177 50.203,-5.1721 3.2558,0.0803 6.5861,1.611 8.4434,4.5924 z m -3.4772,46.113 c 16.06,-19.499 -11.711,-49.153 -31.282,-37.712 -17.247,7.1165 -16.122,34.32 -33.431,39.185 -18.96,0.78688 5.4952,-12.222 12.272,-5.1653 16.736,5.0528 36.873,19.585 52.44,3.6923 m -23.28,-45.625 c -14.247,16.467 -30.295,38.689 -53.762,35.789 -22.698,4.9018 -10.362,-47.364 3.3047,-22.186 18.902,11.622 31.721,-18.973 50.458,-13.604 z m -29.248,-6.1738 c -6.8649,20.614 -34.642,37.749 -48.512,14.87 -17.421,-13.524 8.9849,2.1252 16.455,-2.223 11.154,-0.57757 25.224,-1.6517 32.057,-12.647 z m 2.7558,45.165 c 13.551,-21.227 -21.443,-40.779 -36.428,-27.748 -7.9076,10.83 -24.347,41.888 -36.069,20.538 16.21,-8.8834 38.664,-2.8528 56.863,0.89917 5.3743,1.6272 10.476,4.0524 15.633,6.3108 z m -42.742,2.978 c 20.975,1.9503 -2.796,-29.508 -13.201,-13.737 -16.53,5.6068 -42.724,16.283 -54.184,15.396 11.322,16.072 30.307,3.4865 43.871,-1.8795 7.5728,-3.5036 16.062,-3.8873 23.514,0.22043 z m -0.21477,17.44 c -2.6722,-26.241 -33.964,-16.187 -50.103,-16.049 -9.4967,3.465 -13.374,27.747 1.2847,16.905 16.221,-1.5683 33.619,9.2378 48.818,-0.85604 z m -10.895,33.703 c 19.399,-17.052 -13.211,-47.577 -29.331,-29.893 -6.0986,4.2863 -25.045,21.625 -19.982,20.111 14.624,-6.3961 45.609,-4.9687 52.528,-0.37538 -1.8264,2.816 -6.5735,6.6283 -3.215,10.158 m 16.755,-40.617 c 2.2786,22.413 -19.419,48.203 -40.807,37.873 -20.835,-5.9192 -27.737,-45.395 -3.2122,-50.91 18.972,-6.4905 38.851,-0.75218 58.235,-2.2744 -4.2031,5.5844 -13.631,6.9304 -14.216,15.312 z m 74.341,16.886 c -8.7553,-23.221 -34.379,-28.617 -55.03,-31.098 -21.273,10.162 -6.4306,45.996 9.17,54.142 16.074,7.096 41.344,4.0045 46.341,-17.05 0.0923,-2.031 -0.0728,-4.0093 -0.48115,-5.9949 z m -52.7,-8.853 c 23.617,15.91 -10.637,45.381 -25.674,25.154 -18.227,-2.0121 -45.135,-22.741 -28.941,-43.583 16.335,-19.736 54.4,-10.763 54.615,18.429 z m -3.865,-36.487 c -17.977,-7.7443 -42.967,6.269 -57.279,-3.3808 1.0372,16.686 26.923,7.2861 38.563,11.175 6.8211,-0.11232 13.956,-2.2532 18.715,-7.7946 z m -21.086,19.078 c 11.85,15.22 4.816,-20.841 -5.0579,-6.3315 -17.216,2.2791 -36.382,25.781 -52.433,8.0669 17.363,12.442 37.739,7.967 54.494,-1.8631 l 2.9972,0.12774 z m -18.056,8.4878 c -16.499,-1.4491 -34.865,-10.288 -50.618,-2.135 21.217,0.19502 41.513,8.2429 62.07,12.01 22.451,-8.5497 -2.2077,-16.192 -11.452,-9.8748 m 26.218,32.935 c 23.52,5.4848 4.1011,-37.047 -9.9412,-18.852 -19.92,4.8679 -37.909,28.984 -59.643,17.467 -18.149,-16.111 17.284,-39.126 26.855,-17.681 13.433,7.9902 26.491,19.713 42.73,19.066 z m -30.359,-18.598 c -15.824,-17.298 -43.937,-19.549 -61.611,-4.2345 5.0011,28.783 36.091,17.356 53.019,11.512 3.7334,0.15228 13.436,-0.6225 8.5923,-7.2777 m 14.216,14.734 c -22.171,-7.1313 -42.575,12.428 -64.781,8.0056 -19.065,13.946 -15.767,-28.487 1.3243,-7.994 0.94477,11.064 1.7657,26.281 16.357,17.551 16.356,-2.1495 40.021,2.36 48.923,-16.384 l -1.8231,-1.1796 z m -55.911,14.664 c -17.203,6.8925 -35.492,-1.6898 -52.997,0.77059 6.083,7.2812 22.406,15.101 34.463,17.092 8.066,6.8982 41.01,-17.094 18.534,-17.863 z m 32.931,16.518 c -7.4105,-18.477 -28.213,-10.78 -41.74,-6.2643 -8.8359,4.9059 -19.743,-4.9201 -20.412,9.2347 -9.5048,2.7726 -11.145,-3.7923 -0.0616,-1.8683 20.614,-0.13085 42.805,11.15 62.213,-1.1021 z m -17.461,14.412 c -19.46,-8.8496 -40.952,-3.939 -61.033,-0.83073 19.444,-6.2626 45.28,-21.374 61.033,0.83073 z m 38.954,-36.861 c -21.054,8.4663 -34.415,35.348 -58.984,33.893 -24.545,-7.3062 -6.2423,-47.06 15.345,-40.04 23.025,-1.471 46.092,0.54486 69.125,-0.5658 -8.9316,-0.5001 -17.292,3.4742 -25.486,6.7129 z m 92.428,16.166 c -20.692,-18.446 -48.859,-20.874 -74.653,-21.05 6.1585,24.85 31.537,33.592 45.393,52.269 13.107,12.884 42.745,1.1994 36.633,-19.9 -1.6257,-4.2723 -4.3497,-8.0673 -7.3731,-11.319 z"
           inkscape:connector-curvature="0" />
        <path
           style="fill:url(#f-8)"
           id="path4323"
           d="m -282.74,628.1 c -12.271,18.59 -32.357,34.7 -55.644,34.177 -22.989,-12.019 -6.4879,-45.329 14.619,-49.056 13.4,-8.4248 48.71,-24.144 51.4,0.70074 -2.1959,5.5256 -6.6647,9.6752 -10.375,14.178 z m 80.309,-45.449 c -26.494,2.735 -51.354,14.893 -78.234,14.864 3.2538,-25.493 35.774,-14.03 53.007,-13.67 13.39,3.1474 42.577,18.376 44.805,-0.5694 -5.895,-3.7121 -13.21,-1.3666 -19.578,-0.62415 z m 49.584,32.461 c -10.734,-15.862 -39.26,-31.77 -49.568,-7.3117 -17.972,7.7698 -0.25592,-11.338 8.9836,-9.5175 12.008,-4.3424 48.545,-3.3116 40.585,16.829 z m -7.9142,-21.831 c 0.2122,23.762 -31.75,3.6883 -45.819,7.0384 -16.191,-4.2866 -9.8324,-25.008 6.3912,-19.902 12.685,-0.73551 37.811,-7.0911 37.096,11.817 l 2.3325,1.0475 z m 14.969,-18.997 c 5.65,9.9797 -24.663,2.3669 -32.226,0.32619 -9.742,-1.8862 -38.096,5.4965 -17.782,-6.8148 16.98,-7.0249 35.24,3.8988 52.497,-1.4732 10.484,-0.31217 0.85107,6.4469 -2.4892,7.9618 z m -10.486,6.1505 c 20.554,4.1278 11.176,-32.332 -5.0263,-17.319 -22.263,-3.2718 -43.998,6.9129 -60.567,20.947 -18.865,2.868 -14.154,-16.289 2.924,-8.8163 18.231,2.961 36.666,14.383 55.31,7.0428 l 3.703,-0.8359 3.6568,-1.019 z m 13.03,-17.818 c -21.824,10.507 -47.279,-1.6659 -69.122,8.7637 -17.656,-2.8592 9.2749,-7.7804 15.125,-9.0593 18.968,2.2243 39.217,-6.4442 56.598,-3.2949 l -0.50284,1.5069 -2.0982,2.0835 z m -14.86,-18.476 c -21.399,5.8319 -38.692,24.574 -62.017,21.771 -13.051,-3.2676 0.51829,-33.228 2.6826,-10.644 10.751,19.216 36.108,2.4456 49.348,-6.0384 3.2821,-1.7867 6.6452,-3.4173 9.9866,-5.0883 z m -61.99,43.986 c 23.586,6.8228 13.23,-36.74 -4.3681,-18.151 -19.664,2.7189 -40.723,15.824 -57.927,17.227 -8.5484,-20.584 27.101,-32.208 39.189,-18.203 6.2092,7.5113 10.188,23.366 23.105,19.128 z m 42.517,-40.152 c -26.973,-3.1819 -51.309,13.512 -78.094,12.754 1.4468,-24.572 34.493,-8.2634 46.365,-23.249 7.5974,-3.2287 38.909,-3.8286 31.729,10.495 z m 36.69,-31.285 c -19.906,4.6961 -37.055,24.472 -58.895,17.605 -15.655,-3.1462 -2.1997,-27.835 7.437,-13.352 16.843,1.0846 35.945,3.6538 51.458,-4.2537 z m -24.678,22.904 c 4.6798,-25.082 -30.169,-27.806 -47.567,-25.69 -12.459,4.5698 -10.363,38.031 -25.559,27.897 9.5412,-13.356 29.792,2.1277 42.71,4.2964 10.401,2.5423 22.5,1.3936 30.417,-6.5039 m -27.401,-14.422 c -17.479,9.2354 -40.752,10.752 -57.71,-0.4534 -0.94031,-23.45 27.056,-8.0602 39.636,-10.348 8.5759,-2.8779 23.713,-2.8211 18.074,10.801 z m 1.4936,5.9802 c 1.8711,-19.062 -21.24,-21.416 -35.267,-20.202 -22.402,-6.1316 -34.607,20.289 -29.504,39.089 4.0444,16.2 25.748,8.954 37.258,5.4999 11.265,-4.6725 23.039,-12.551 27.512,-24.387 z m -32.913,-5.1882 c -8.5,17.557 -22.419,44.426 -46.332,35.12 -24.181,-6.0352 -22.453,-48.605 6.6902,-36.852 14.154,8.005 29.452,-3.205 41.441,-0.98246 l -0.40307,1.1761 -1.3958,1.5378 z m -21.42,-6.3553 c 0.0303,10.694 -22.362,-8.4598 -24.154,6.4778 -16.643,15.693 -50.449,-8.8334 -28.063,-25.435 12.281,-11.664 44.788,-21.117 51.473,-0.0396 0.99342,6.3001 -0.37556,12.708 0.74435,18.996 z m 29.468,-39.584 c -16.907,14.616 -39.766,16.718 -57.552,4.4639 -17.519,-7.2455 13.734,-12.195 19.657,-5.3169 11.354,5.0375 28.546,14.27 37.895,0.85294 z m -42.373,17.433 c 23.244,-14.344 -23.141,-34.337 -26.638,-9.8916 -10.629,9.4106 -37.772,19.716 -42.315,-0.49582 19.538,-3.8694 39.602,1.9838 58.875,4.6127 3.6567,1.3237 7.1309,3.2215 10.078,5.7747 z m -26.553,-0.99493 c -8.2366,-20.454 -33.336,-13.068 -50.398,-14.994 -28.202,-1.9952 1.4862,28.222 14.848,14.283 11.114,-1.0179 36.194,8.0241 38.495,1.0288 -0.34814,-0.26796 -10.979,3.4769 -2.9439,-0.31806 m 15.584,11.193 c 9.9527,10.374 3.6265,-10.557 -6.5259,-3.5579 -15.829,0.42868 -31.709,18.113 -46.83,7.727 -10.003,-17.108 24.062,-13.942 33.913,-10 5.8968,3.1405 15.39,0.21121 19.442,5.8312 z m -4.9034,-4.575 c -21.213,-2.8206 -43.231,-17.771 -64.403,-6.6882 2.3285,12.109 1.3136,10.934 11.998,7.3453 17.939,-1.654 35.771,13.063 53.229,3.8014 1.5924,-1.1397 0.60839,-3.6873 -0.82403,-4.4584 z m -24.175,-20.853 c -16.041,4.9975 -38.326,32.335 -51.644,8.8425 -5.4069,-8.5606 -16.44,-2.012 -3.0584,0.63409 17.475,2.4466 43.209,7.8964 54.703,-9.4766 z m 4.9654,24.137 c -17.249,-14.966 -41.778,-17.268 -63.538,-13.924 -8.159,5.4092 10.131,21.677 -3.6098,21.677 21.918,-8.8454 45.28,9.7493 66.908,-0.88087 2.7184,-1.2125 2.8279,-5.4633 0.23935,-6.8715 z m -9.9582,13.951 c -19.625,-9.1748 -42.379,-14.592 -63.742,-8.5901 11.047,23.475 36.02,-8.9956 52.152,4.3341 3.5483,2.0938 7.3786,4.1002 11.589,4.256 z m 60.018,4.3116 c -24.139,-17.509 -55.27,-11.316 -83.048,-12.734 28.527,7.294 38.954,42.209 68.046,48.409 17.254,2.1433 33.165,-25.839 15.002,-35.674 m -2.6112,73.645 c 20.373,-11.715 -3.2958,-46.019 -22.048,-33.59 -19.794,12.053 -34.247,30.491 -51.014,46.101 16.258,13.796 41.803,6.2105 59.252,-1.2124 5.0533,-3.1686 9.6654,-7.0156 13.81,-11.298 z m -36.09,-26.186 c -1.2105,18.983 -16.743,42.155 -38.207,37.285 -21.606,-4.8106 -32.486,-38.143 -12.787,-51.66 13.931,-12.514 41.095,-26.669 55.732,-8.4862 2.5007,8.0122 -3.7482,15.16 -4.7378,22.861 z m 74.196,-25.877 c -24.31,-16.456 -54.412,-6.3116 -81.469,-7.8261 26.628,-0.69662 35.011,35.107 61.36,35.25 13.275,2.2181 35.851,-15.09 20.108,-27.423 z m 20.064,17.438 c -18.925,-11.339 -41.756,4.2819 -60.875,-5.7326 -1.1521,-27.136 38.493,-24.246 49.96,-6.3694 4.059,3.6272 7.7017,7.711 10.915,12.102 m -27.75,-35.028 c -6.4429,4.6948 -1.7898,18.244 -13.836,10.987 -13.412,2.8654 -45.312,8.6971 -42.786,-11.641 19.318,-9.4129 42.552,1.9149 61.991,-2.0484 -0.59611,2.1229 -3.8731,2.0654 -5.3693,2.7023 z m 5.1856,-11.678 c -19.354,2.7879 -41.644,20.354 -57.329,0.1524 -14.204,5.8216 -6.2213,30.4 9.1501,20.439 17.138,-0.7982 42.937,0.66984 48.179,-20.592 z m -4.6849,-8.1979 c -25.38,1.4644 -42.955,28.117 -69.363,24.512 -17.359,-15.987 12.229,-33.73 27.631,-28.321 13.3,3.9369 27.975,2.5393 41.732,3.8092 z m -4.8106,-13.611 c -20.274,4.3697 -41.174,2.7411 -61.706,1.8563 14.488,9.7995 35.883,17.984 49.916,2.8153 3.4728,-2.445 7.4239,-4.6273 11.79,-4.6716 z m -20.772,10.199 c -12.355,16.107 -38.403,7.4083 -54.843,6.5305 -17.595,6.8486 10.861,30.088 23.953,24.342 23.493,1.4806 15.435,-27.269 30.89,-30.873 z m -41.969,23.707 c 6.9079,21.198 -26.392,10.771 -37.957,15.94 -24.234,0.0962 -27.994,-32.917 -4.5277,-38.956 15.814,-12.515 52.662,-13.173 44.321,15.876 l -0.79553,3.6548 -1.0413,3.4856 z m 8.6772,-21.69 c 5.9084,-23.862 -32.643,-14.891 -42.88,-4.3281 -13.631,8.4986 -32.766,-8.0104 -14.549,-18.273 20.915,-16.088 41.038,6.564 49.573,23.046 2.5152,0.8853 5.5152,1.0115 7.8567,-0.44432 z m -32.54,-34.525 c 7.1577,24.966 -32.502,16.245 -40.832,2.8882 -8.5915,-4.3303 -25.299,0.0888 -7.0404,4.1468 15.419,6.1582 42.176,23.807 53.883,7.1758 -1.2748,-4.7509 -10.777,-8.8375 -6.0107,-14.211 m -2.192,17.439 c -10.169,17.535 -45.322,-4.0523 -47.702,3.861 18.146,4.7177 35.824,23.429 55.356,14.82 6.9988,-6.3771 -1.9354,-15.427 -7.654,-18.681 z m 9.9826,16.537 c 3.9405,20.598 -25.965,4.6044 -35.751,15.887 -8.1326,1.7718 -25.522,-1.4609 -20.637,-13.117 8.774,18.093 32.7,15.955 46.665,5.6318 3.6345,-2.2946 6.9543,-5.1078 9.7222,-8.402 z m 23.129,44.907 c -5.3509,-22.24 -30.603,-29.555 -50.669,-31.243 -18.45,5.9666 -13.296,28.681 -9.8587,43.068 1.2815,25.197 36.843,24.106 51.552,10.927 6.1486,-5.7894 9.2398,-14.388 8.9762,-22.752 z m -39.961,-9.8582 c 13.178,18.128 -11.35,41.85 -30.12,33.598 -17.118,-7.4324 -39.862,-29.029 -23.593,-47.86 14.195,-13.209 36.848,-20.156 55.025,-12.829 7.1387,8.1736 -3.157,18.098 -1.3113,27.091 z m 1.766,-32.662 c -14.184,15.884 -39.295,-0.85757 -55.086,0.20261 -5.4824,-19.648 26.692,-22.621 40.815,-22.679 11.461,0.17837 23.145,11.322 14.271,22.477 z m 2.0405,-22.779 c -12.271,-13.678 -34.503,-2.4345 -50.036,-6.5378 -10.426,2.8966 -18.003,19.483 -0.74523,11.902 16.886,0.0387 38.688,13.205 50.781,-5.3638 z m -0.88338,25.797 c -8.5809,-19.892 -33.45,-18.859 -51.635,-17.628 -25.131,-6.3468 -12.655,23.902 -2.3125,32.414 15.904,7.377 44.424,10.22 54.197,-6.8517 0.55855,-2.6155 0.41418,-5.3535 -0.24946,-7.9345 z m -26.363,11.212 c -8.1102,-14.298 -29.606,5.117 -42.91,-4.2045 -7.6677,-1.1866 -25.162,6.4999 -6.9122,4.6902 16.532,-0.89489 33.546,-5.8174 49.823,-0.48561 z m 17.911,10.288 c -22.273,-18.696 -52.919,-11.852 -79.501,-12.464 23.111,3.9632 24.072,38.078 48.403,39.701 14.716,3.7607 46.119,-8.0358 31.098,-27.237 z m -32.391,-5.7902 c 14.07,18.287 -15.012,41.14 -32.01,29.006 -8.6094,-4.4867 -18.395,-33.576 -26.526,-20.926 11.365,14.814 30.733,8.4091 45.972,5.5507 6.5021,-1.4684 12.782,-6.3592 12.564,-13.631 m -7.8578,16.128 c -20.019,-0.18044 -41.238,-13.876 -60.238,-1.9311 16.457,14.029 40.379,17.555 60.711,10.957 4.1391,-1.6266 7.0632,-11.492 -0.47224,-9.0259 z m -24.386,18.712 c -8.4939,-19.756 -33.744,-11.92 -48.639,-5.2357 -10.404,-1.2188 -27.03,12.352 -7.7173,11.682 19.045,0.0893 37.173,-9.9855 56.356,-6.4458 m -9.2112,14.038 c -3.2547,-23.172 -30.964,-9.9617 -45.624,-12.188 -12.35,-0.44196 -19.256,23.305 -2.2498,12.017 15.792,-5.1314 32.108,5.6166 47.873,0.17131 z m 43.083,-22.013 c -25.148,0.5161 -43.945,21.861 -68.869,23.364 -23.267,-15.008 14.334,-37.169 28.692,-22.582 20.535,3.0202 40.592,11.174 61.65,9.2074 7.5776,-13.174 -15.306,-9.3827 -21.473,-9.9888 z m 69.617,46.898 c -6.9733,-22.633 -32.104,-34.887 -54.63,-33.63 -17.846,15.512 -4.7576,40.146 0.52756,58.366 10.085,18.56 37.238,13.91 48.197,-1.2942 5.2881,-6.4205 8.0836,-15.236 5.9053,-23.443 m -34.596,55.807 c 20.846,-10.077 -16.795,-30.22 -22.391,-10.711 -13.218,13.56 -49.507,19.575 -44.922,-8.9618 8.3436,-21.695 35.34,-16.061 47.591,-1.3647 7.5483,5.9377 15.293,12.316 19.722,21.038 m -21.193,-75.662 c -3.8082,19.688 -21.229,43.943 -43.952,36.251 -20.166,-7.0116 -25.345,-40.8 -3.9323,-49.669 17.134,-8.4414 44.219,-16.406 59.782,-7.53 0.78934,9.0598 -11.936,12.026 -11.898,20.948 z m 73.225,-13.971 c -22.103,-5.3947 -44.561,-15.373 -67.724,-10.449 -6.296,6.8887 12.454,8.7726 3.3472,1.7526 14.105,-14.371 46.789,-21.484 57.047,0.20432 1.6352,3.3872 3.8049,6.8192 7.3295,8.4919 z m -19.963,-20.58 c -7.9941,-0.91024 4.1865,9.9186 -6.4332,3.8689 -19.119,0.16184 -39.556,9.5812 -57.681,-0.45854 19.619,-8.2747 43.572,9.2404 60.547,-7.4091 3.2396,-0.32424 11.862,-0.78994 3.5666,3.9987 z m -33.547,-3.9818 c -1.984,21.986 -31.894,10.413 -45.947,15.616 -21.553,-7.9146 -3.492,-37.424 15.318,-29.55 10.394,-0.43076 37.051,-5.1482 35.923,8.4603 -1.9956,1.5471 -4.3552,2.9656 -5.2937,5.4738 z m 34.516,-20.268 c -12.6,19.082 -42.094,14.504 -59.122,5.1038 -4.3538,-19.007 24.204,-3.2268 34.571,-4.1768 8.1375,1.1574 16.584,1.39 24.55,-0.92697 z m -41.625,6.851 c 13.733,-1.6318 -7.5558,-21.477 -14.841,-10.653 -14.51,3.1247 -28.745,24.207 -43.806,11.192 17.715,4.7646 34.336,2.3414 50.203,-4.8099 3.2558,0.0746 6.5861,1.4982 8.4434,4.2708 z m -3.4772,42.884 c 16.06,-18.134 -11.711,-45.711 -31.282,-35.071 -17.247,6.6182 -16.122,31.917 -33.431,36.441 -18.96,0.73178 5.4952,-11.366 12.272,-4.8036 16.736,4.699 36.873,18.214 52.44,3.4337 m -23.28,-42.43 c -14.247,15.314 -30.295,35.98 -53.762,33.283 -22.698,4.5585 -10.362,-44.048 3.3047,-20.632 18.902,10.808 31.721,-17.645 50.458,-12.651 z m -29.248,-5.7415 c -6.8649,19.171 -34.642,35.105 -48.512,13.828 -17.421,-12.577 8.9849,1.9764 16.455,-2.0673 11.154,-0.53713 25.224,-1.5361 32.057,-11.761 z m 2.7558,42.002 c 13.551,-19.74 -21.443,-37.924 -36.428,-25.805 -7.9076,10.072 -24.347,38.955 -36.069,19.1 16.21,-8.2614 38.664,-2.653 56.863,0.8362 5.3743,1.5132 10.476,3.7687 15.633,5.8689 z m -42.742,2.7695 c 20.975,1.8137 -2.796,-27.442 -13.201,-12.775 -16.53,5.2142 -42.724,15.142 -54.184,14.318 11.322,14.947 30.307,3.2424 43.871,-1.7478 7.5728,-3.2583 16.062,-3.6151 23.514,0.20499 z m -0.21477,16.218 c -2.6722,-24.403 -33.964,-15.054 -50.103,-14.925 -9.4967,3.2224 -13.374,25.804 1.2847,15.721 16.221,-1.4585 33.619,8.5909 48.818,-0.7961 z m -10.895,31.343 c 19.399,-15.858 -13.211,-44.245 -29.331,-27.8 -6.0986,3.9861 -25.045,20.111 -19.982,18.703 14.624,-5.9482 45.609,-4.6208 52.528,-0.3491 -1.8263,2.6188 -6.5735,6.1642 -3.215,9.4464 m 16.755,-37.773 c 2.2786,20.844 -19.419,44.828 -40.807,35.221 -20.835,-5.5047 -27.737,-42.216 -3.2122,-47.345 18.972,-6.036 38.851,-0.69951 58.235,-2.1152 -4.2031,5.1933 -13.631,6.4451 -14.216,14.24 z m 74.341,15.703 c -8.7553,-21.595 -34.379,-26.613 -55.03,-28.92 -21.273,9.4504 -6.4306,42.775 9.17,50.351 16.074,6.5991 41.344,3.7241 46.341,-15.856 0.0923,-1.8888 -0.0728,-3.7285 -0.48115,-5.5751 z m -52.7,-8.233 c 23.617,14.796 -10.637,42.204 -25.674,23.393 -18.227,-1.8712 -45.135,-21.149 -28.941,-40.531 16.335,-18.354 54.4,-10.009 54.615,17.138 z m -3.865,-33.932 c -17.977,-7.202 -42.967,5.83 -57.279,-3.144 1.0372,15.517 26.923,6.7759 38.563,10.393 6.8211,-0.10446 13.956,-2.0954 18.715,-7.2487 z m -21.086,17.742 c 11.85,14.154 4.816,-19.381 -5.0579,-5.8881 -17.216,2.1195 -36.382,23.976 -52.433,7.502 17.363,11.571 37.739,7.4091 54.494,-1.7326 l 2.9972,0.11879 z m -18.056,7.8934 c -16.499,-1.3476 -34.865,-9.5673 -50.618,-1.9855 21.217,0.18136 41.513,7.6657 62.07,11.169 22.451,-7.951 -2.2077,-15.058 -11.452,-9.1833 m 26.218,30.629 c 23.52,5.1008 4.1011,-34.453 -9.9412,-17.532 -19.92,4.527 -37.909,26.954 -59.643,16.244 -18.149,-14.983 17.284,-36.386 26.855,-16.443 13.433,7.4307 26.491,18.333 42.73,17.731 z m -30.359,-17.296 c -15.824,-16.087 -43.937,-18.18 -61.611,-3.938 5.0011,26.768 36.091,16.141 53.019,10.706 3.7334,0.14161 13.436,-0.57891 8.5923,-6.7681 m 14.216,13.702 c -22.171,-6.6319 -42.575,11.558 -64.781,7.445 -19.065,12.97 -15.767,-26.492 1.3243,-7.4342 0.94476,10.289 1.7657,24.44 16.357,16.322 16.356,-1.999 40.021,2.1947 48.923,-15.236 l -1.8231,-1.097 z m -55.911,13.637 c -17.203,6.4099 -35.492,-1.5715 -52.997,0.71663 6.083,6.7713 22.406,14.043 34.463,15.895 8.066,6.4151 41.01,-15.897 18.534,-16.612 z m 32.931,15.362 c -7.4105,-17.183 -28.213,-10.025 -41.74,-5.8256 -8.8359,4.5624 -19.743,-4.5756 -20.412,8.588 -9.5048,2.5785 -11.145,-3.5267 -0.0616,-1.7375 20.614,-0.12169 42.805,10.369 62.213,-1.0249 z m -17.461,13.403 c -19.46,-8.2299 -40.952,-3.6631 -61.033,-0.77256 19.444,-5.8241 45.28,-19.877 61.033,0.77256 z m 38.954,-34.279 c -21.054,7.8735 -34.414,32.872 -58.984,31.52 -24.545,-6.7946 -6.2423,-43.764 15.345,-37.236 23.025,-1.368 46.092,0.50671 69.125,-0.52618 -8.9316,-0.46508 -17.292,3.2309 -25.486,6.2428 z m 92.428,15.034 c -20.692,-17.154 -48.859,-19.413 -74.653,-19.576 6.1585,23.11 31.537,31.24 45.393,48.609 13.107,11.981 42.745,1.1154 36.633,-18.506 -1.6257,-3.9731 -4.3497,-7.5024 -7.3731,-10.526 z"
           inkscape:connector-curvature="0" />
        <path
           style="fill:url(#e-9)"
           id="path4325"
           d="m -317.02,588.1 c -12.271,18.59 -32.357,34.7 -55.644,34.177 -22.989,-12.019 -6.4879,-45.329 14.619,-49.056 13.4,-8.4248 48.71,-24.144 51.4,0.70074 -2.1959,5.5256 -6.6647,9.6752 -10.375,14.178 z m 80.309,-45.449 c -26.494,2.735 -51.354,14.893 -78.234,14.864 3.2538,-25.493 35.774,-14.03 53.007,-13.67 13.39,3.1474 42.577,18.376 44.805,-0.5694 -5.895,-3.7121 -13.21,-1.3666 -19.578,-0.62415 z m 49.584,32.461 c -10.734,-15.862 -39.26,-31.77 -49.568,-7.3117 -17.972,7.7698 -0.25592,-11.338 8.9836,-9.5175 12.008,-4.3424 48.545,-3.3116 40.585,16.829 z m -7.9142,-21.831 c 0.2122,23.762 -31.75,3.6883 -45.819,7.0384 -16.191,-4.2866 -9.8324,-25.008 6.3912,-19.902 12.685,-0.73551 37.811,-7.0911 37.096,11.817 l 2.3325,1.0475 z m 14.969,-18.997 c 5.65,9.9797 -24.663,2.3669 -32.226,0.32619 -9.742,-1.8862 -38.096,5.4965 -17.782,-6.8148 16.98,-7.0249 35.24,3.8988 52.497,-1.4732 10.484,-0.31217 0.85107,6.4469 -2.4892,7.9618 z m -10.486,6.1505 c 20.554,4.1278 11.176,-32.332 -5.0263,-17.319 -22.263,-3.2718 -43.998,6.9129 -60.567,20.947 -18.865,2.868 -14.154,-16.289 2.924,-8.8163 18.231,2.961 36.666,14.383 55.31,7.0428 l 3.703,-0.8359 3.6568,-1.019 z m 13.03,-17.818 c -21.824,10.507 -47.279,-1.6659 -69.122,8.7637 -17.656,-2.8592 9.2749,-7.7804 15.125,-9.0593 18.968,2.2243 39.217,-6.4442 56.598,-3.2949 l -0.50284,1.5069 -2.0982,2.0835 z m -14.86,-18.476 c -21.399,5.8319 -38.692,24.574 -62.017,21.771 -13.051,-3.2676 0.51829,-33.228 2.6826,-10.644 10.751,19.216 36.108,2.4456 49.348,-6.0384 3.2821,-1.7867 6.6452,-3.4173 9.9866,-5.0883 z m -61.99,43.986 c 23.586,6.8228 13.23,-36.74 -4.3681,-18.151 -19.664,2.7189 -40.723,15.824 -57.927,17.227 -8.5484,-20.584 27.101,-32.208 39.189,-18.203 6.2092,7.5113 10.188,23.366 23.105,19.128 z m 42.517,-40.152 c -26.973,-3.1819 -51.309,13.512 -78.094,12.754 1.4468,-24.572 34.493,-8.2634 46.365,-23.249 7.5974,-3.2287 38.909,-3.8286 31.729,10.495 z m 36.69,-31.285 c -19.906,4.6961 -37.055,24.472 -58.895,17.605 -15.655,-3.1462 -2.1997,-27.835 7.437,-13.352 16.843,1.0846 35.945,3.6538 51.458,-4.2537 z m -24.678,22.904 c 4.6798,-25.082 -30.169,-27.806 -47.567,-25.69 -12.459,4.5698 -10.363,38.031 -25.559,27.897 9.5412,-13.356 29.792,2.1277 42.71,4.2964 10.401,2.5423 22.5,1.3936 30.417,-6.5039 m -27.401,-14.422 c -17.479,9.2354 -40.752,10.752 -57.71,-0.4534 -0.94031,-23.45 27.056,-8.0602 39.636,-10.348 8.5759,-2.8779 23.713,-2.8211 18.074,10.801 z m 1.4936,5.9802 c 1.8711,-19.062 -21.24,-21.416 -35.267,-20.202 -22.402,-6.1316 -34.607,20.289 -29.504,39.089 4.0444,16.2 25.748,8.954 37.258,5.4999 11.265,-4.6725 23.039,-12.551 27.512,-24.387 z m -32.913,-5.1882 c -8.5,17.557 -22.419,44.426 -46.332,35.12 -24.181,-6.0352 -22.453,-48.605 6.6902,-36.852 14.154,8.005 29.452,-3.205 41.441,-0.98246 l -0.40307,1.1761 -1.3958,1.5378 z m -21.42,-6.3553 c 0.0303,10.694 -22.362,-8.4598 -24.154,6.4778 -16.643,15.693 -50.449,-8.8334 -28.063,-25.435 12.281,-11.664 44.788,-21.117 51.473,-0.0396 0.99342,6.3001 -0.37556,12.708 0.74435,18.996 z m 29.468,-39.584 c -16.907,14.616 -39.766,16.718 -57.552,4.4639 -17.519,-7.2455 13.734,-12.195 19.657,-5.3169 11.354,5.0375 28.546,14.27 37.895,0.85294 z m -42.373,17.433 c 23.244,-14.344 -23.141,-34.337 -26.638,-9.8916 -10.629,9.4106 -37.772,19.716 -42.315,-0.49582 19.538,-3.8694 39.602,1.9838 58.875,4.6127 3.6567,1.3237 7.1309,3.2215 10.078,5.7747 z m -26.553,-0.99493 c -8.2366,-20.454 -33.336,-13.068 -50.398,-14.994 -28.202,-1.9952 1.4862,28.222 14.848,14.283 11.114,-1.0179 36.194,8.0241 38.495,1.0288 -0.34814,-0.26796 -10.979,3.4769 -2.9439,-0.31806 m 15.584,11.193 c 9.9527,10.374 3.6265,-10.557 -6.5259,-3.5579 -15.829,0.42868 -31.709,18.113 -46.83,7.727 -10.003,-17.108 24.062,-13.942 33.913,-10 5.8968,3.1405 15.39,0.21121 19.442,5.8312 z m -4.9034,-4.575 c -21.213,-2.8206 -43.231,-17.771 -64.403,-6.6882 2.3285,12.109 1.3136,10.934 11.998,7.3453 17.939,-1.654 35.771,13.063 53.229,3.8014 1.5924,-1.1397 0.60839,-3.6873 -0.82403,-4.4584 z m -24.175,-20.853 c -16.041,4.9975 -38.326,32.335 -51.644,8.8425 -5.4069,-8.5606 -16.44,-2.012 -3.0584,0.63409 17.475,2.4466 43.209,7.8964 54.703,-9.4766 z m 4.9654,24.137 c -17.249,-14.966 -41.778,-17.268 -63.538,-13.924 -8.159,5.4092 10.131,21.677 -3.6098,21.677 21.918,-8.8454 45.28,9.7493 66.908,-0.88087 2.7184,-1.2125 2.8279,-5.4633 0.23935,-6.8715 z m -9.9582,13.951 c -19.625,-9.1748 -42.379,-14.592 -63.742,-8.5901 11.047,23.475 36.02,-8.9956 52.152,4.3341 3.5483,2.0938 7.3786,4.1002 11.589,4.256 z m 60.018,4.3116 c -24.139,-17.509 -55.27,-11.316 -83.048,-12.734 28.527,7.294 38.954,42.209 68.046,48.409 17.254,2.1433 33.165,-25.839 15.002,-35.674 m -2.6112,73.645 c 20.373,-11.715 -3.2958,-46.019 -22.048,-33.59 -19.794,12.053 -34.247,30.491 -51.014,46.101 16.258,13.796 41.803,6.2105 59.252,-1.2124 5.0533,-3.1686 9.6654,-7.0156 13.81,-11.298 z m -36.09,-26.186 c -1.2105,18.983 -16.743,42.155 -38.207,37.285 -21.606,-4.8106 -32.486,-38.143 -12.787,-51.66 13.931,-12.514 41.095,-26.669 55.732,-8.4862 2.5007,8.0122 -3.7482,15.16 -4.7378,22.861 z m 74.196,-25.877 c -24.31,-16.456 -54.412,-6.3116 -81.469,-7.8261 26.628,-0.69662 35.011,35.107 61.36,35.25 13.275,2.2181 35.851,-15.09 20.108,-27.423 z m 20.064,17.438 c -18.925,-11.339 -41.756,4.2819 -60.875,-5.7326 -1.1521,-27.136 38.493,-24.246 49.96,-6.3694 4.059,3.6272 7.7017,7.711 10.915,12.102 m -27.75,-35.028 c -6.4429,4.6948 -1.7898,18.244 -13.836,10.987 -13.412,2.8654 -45.312,8.6971 -42.786,-11.641 19.318,-9.4129 42.552,1.9149 61.991,-2.0484 -0.59611,2.1229 -3.8731,2.0654 -5.3693,2.7023 z m 5.1856,-11.678 c -19.354,2.7879 -41.644,20.354 -57.329,0.1524 -14.204,5.8216 -6.2213,30.4 9.1501,20.439 17.138,-0.7982 42.937,0.66984 48.179,-20.592 z m -4.6849,-8.1979 c -25.38,1.4644 -42.955,28.117 -69.363,24.512 -17.359,-15.987 12.229,-33.73 27.631,-28.321 13.3,3.9369 27.975,2.5393 41.732,3.8092 z m -4.8106,-13.611 c -20.274,4.3697 -41.174,2.7411 -61.706,1.8563 14.488,9.7995 35.883,17.984 49.916,2.8153 3.4728,-2.445 7.4239,-4.6273 11.79,-4.6716 z m -20.772,10.199 c -12.355,16.107 -38.403,7.4083 -54.843,6.5305 -17.595,6.8486 10.861,30.088 23.953,24.342 23.493,1.4806 15.435,-27.269 30.89,-30.873 z m -41.969,23.707 c 6.9079,21.198 -26.392,10.771 -37.957,15.94 -24.234,0.0962 -27.994,-32.917 -4.5277,-38.956 15.814,-12.515 52.662,-13.173 44.321,15.876 l -0.79553,3.6548 -1.0413,3.4856 z m 8.6772,-21.69 c 5.9084,-23.862 -32.643,-14.891 -42.88,-4.3281 -13.631,8.4986 -32.766,-8.0104 -14.549,-18.273 20.915,-16.088 41.038,6.564 49.573,23.046 2.5152,0.8853 5.5152,1.0115 7.8567,-0.44432 z m -32.54,-34.525 c 7.1577,24.966 -32.502,16.245 -40.832,2.8882 -8.5915,-4.3303 -25.299,0.0888 -7.0404,4.1468 15.419,6.1582 42.176,23.807 53.883,7.1758 -1.2748,-4.7509 -10.777,-8.8375 -6.0107,-14.211 m -2.192,17.439 c -10.169,17.535 -45.322,-4.0523 -47.702,3.861 18.146,4.7177 35.824,23.429 55.356,14.82 6.9988,-6.3771 -1.9354,-15.427 -7.654,-18.681 z m 9.9826,16.537 c 3.9405,20.598 -25.965,4.6044 -35.751,15.887 -8.1326,1.7718 -25.522,-1.4609 -20.637,-13.117 8.774,18.093 32.7,15.955 46.665,5.6318 3.6345,-2.2946 6.9543,-5.1078 9.7222,-8.402 z m 23.129,44.907 c -5.3509,-22.24 -30.603,-29.555 -50.669,-31.243 -18.45,5.9666 -13.296,28.681 -9.8587,43.068 1.2815,25.197 36.843,24.106 51.552,10.927 6.1486,-5.7894 9.2398,-14.388 8.9762,-22.752 z m -39.961,-9.8582 c 13.178,18.128 -11.35,41.85 -30.12,33.598 -17.118,-7.4324 -39.862,-29.029 -23.593,-47.86 14.195,-13.209 36.848,-20.156 55.025,-12.829 7.1387,8.1736 -3.157,18.098 -1.3113,27.091 z m 1.766,-32.662 c -14.184,15.884 -39.295,-0.85757 -55.086,0.20261 -5.4824,-19.648 26.692,-22.621 40.815,-22.679 11.461,0.17837 23.145,11.322 14.271,22.477 z m 2.0405,-22.779 c -12.271,-13.678 -34.503,-2.4345 -50.036,-6.5378 -10.426,2.8966 -18.003,19.483 -0.74523,11.902 16.886,0.0387 38.688,13.205 50.781,-5.3638 z m -0.88338,25.797 c -8.5809,-19.892 -33.45,-18.859 -51.635,-17.628 -25.131,-6.3468 -12.655,23.902 -2.3125,32.414 15.904,7.377 44.424,10.22 54.197,-6.8517 0.55855,-2.6155 0.41418,-5.3535 -0.24946,-7.9345 z m -26.363,11.212 c -8.1102,-14.298 -29.606,5.117 -42.91,-4.2045 -7.6677,-1.1866 -25.162,6.4999 -6.9122,4.6902 16.532,-0.89489 33.546,-5.8174 49.823,-0.48561 z m 17.911,10.288 c -22.273,-18.696 -52.919,-11.852 -79.501,-12.464 23.111,3.9632 24.072,38.078 48.403,39.701 14.716,3.7607 46.119,-8.0358 31.098,-27.237 z m -32.391,-5.7902 c 14.07,18.287 -15.012,41.14 -32.01,29.006 -8.6094,-4.4867 -18.395,-33.576 -26.526,-20.926 11.365,14.814 30.733,8.4091 45.972,5.5507 6.5021,-1.4684 12.782,-6.3592 12.564,-13.631 m -7.8578,16.128 c -20.019,-0.18044 -41.238,-13.876 -60.238,-1.9311 16.457,14.029 40.379,17.555 60.711,10.957 4.1391,-1.6266 7.0632,-11.492 -0.47224,-9.0259 z m -24.386,18.712 c -8.4939,-19.756 -33.744,-11.92 -48.639,-5.2357 -10.404,-1.2188 -27.03,12.352 -7.7173,11.682 19.045,0.0893 37.173,-9.9855 56.356,-6.4458 m -9.2112,14.038 c -3.2547,-23.172 -30.964,-9.9617 -45.624,-12.188 -12.35,-0.44196 -19.256,23.305 -2.2498,12.017 15.792,-5.1314 32.108,5.6166 47.873,0.17131 z m 43.083,-22.013 c -25.148,0.5161 -43.945,21.861 -68.869,23.364 -23.267,-15.008 14.334,-37.169 28.692,-22.582 20.535,3.0202 40.592,11.174 61.65,9.2074 7.5776,-13.174 -15.306,-9.3827 -21.473,-9.9888 z m 69.617,46.898 c -6.9733,-22.633 -32.104,-34.887 -54.63,-33.63 -17.846,15.512 -4.7576,40.146 0.52756,58.366 10.085,18.56 37.238,13.91 48.197,-1.2942 5.2881,-6.4205 8.0836,-15.236 5.9053,-23.443 m -34.596,55.807 c 20.846,-10.077 -16.795,-30.22 -22.391,-10.711 -13.218,13.56 -49.507,19.575 -44.922,-8.9618 8.3436,-21.695 35.34,-16.061 47.591,-1.3647 7.5483,5.9377 15.293,12.316 19.722,21.038 m -21.193,-75.662 c -3.8082,19.688 -21.229,43.943 -43.952,36.251 -20.166,-7.0116 -25.345,-40.8 -3.9323,-49.669 17.134,-8.4414 44.219,-16.406 59.782,-7.53 0.78934,9.0598 -11.936,12.026 -11.898,20.948 z m 73.225,-13.971 c -22.103,-5.3947 -44.561,-15.373 -67.724,-10.449 -6.296,6.8887 12.454,8.7726 3.3472,1.7526 14.105,-14.371 46.789,-21.484 57.047,0.20432 1.6352,3.3872 3.8049,6.8192 7.3295,8.4919 z m -19.963,-20.58 c -7.9941,-0.91024 4.1865,9.9186 -6.4332,3.8689 -19.119,0.16184 -39.556,9.5812 -57.681,-0.45854 19.619,-8.2747 43.572,9.2404 60.547,-7.4091 3.2396,-0.32424 11.862,-0.78994 3.5666,3.9987 z m -33.547,-3.9818 c -1.984,21.986 -31.894,10.413 -45.947,15.616 -21.553,-7.9146 -3.492,-37.424 15.318,-29.55 10.394,-0.43076 37.051,-5.1482 35.923,8.4603 -1.9956,1.5471 -4.3552,2.9656 -5.2937,5.4738 z m 34.516,-20.268 c -12.6,19.082 -42.094,14.504 -59.122,5.1038 -4.3538,-19.007 24.204,-3.2268 34.571,-4.1768 8.1375,1.1574 16.584,1.39 24.55,-0.92697 z m -41.625,6.851 c 13.733,-1.6318 -7.5558,-21.477 -14.841,-10.653 -14.51,3.1247 -28.745,24.207 -43.806,11.192 17.715,4.7646 34.336,2.3414 50.203,-4.8099 3.2558,0.0746 6.5861,1.4982 8.4434,4.2708 z m -3.4772,42.884 c 16.06,-18.134 -11.711,-45.711 -31.282,-35.071 -17.247,6.6182 -16.122,31.917 -33.431,36.441 -18.96,0.73178 5.4952,-11.366 12.272,-4.8036 16.736,4.699 36.873,18.214 52.44,3.4337 m -23.28,-42.43 c -14.247,15.314 -30.295,35.98 -53.762,33.283 -22.698,4.5585 -10.362,-44.048 3.3047,-20.632 18.902,10.808 31.721,-17.645 50.458,-12.651 z m -29.248,-5.7415 c -6.8649,19.171 -34.642,35.105 -48.512,13.828 -17.421,-12.577 8.9849,1.9764 16.455,-2.0673 11.154,-0.53713 25.224,-1.5361 32.057,-11.761 z m 2.7558,42.002 c 13.551,-19.74 -21.443,-37.924 -36.428,-25.805 -7.9076,10.072 -24.347,38.955 -36.069,19.1 16.21,-8.2614 38.664,-2.653 56.863,0.8362 5.3743,1.5132 10.476,3.7687 15.633,5.8689 z m -42.742,2.7695 c 20.975,1.8137 -2.796,-27.442 -13.201,-12.775 -16.53,5.2142 -42.724,15.142 -54.184,14.318 11.322,14.947 30.307,3.2424 43.871,-1.7478 7.5728,-3.2583 16.062,-3.6151 23.514,0.20499 z m -0.21477,16.218 c -2.6722,-24.403 -33.964,-15.054 -50.103,-14.925 -9.4967,3.2224 -13.374,25.804 1.2847,15.721 16.221,-1.4585 33.619,8.5909 48.818,-0.7961 z m -10.895,31.343 c 19.399,-15.858 -13.211,-44.245 -29.331,-27.8 -6.0986,3.9861 -25.045,20.111 -19.982,18.703 14.624,-5.9482 45.609,-4.6208 52.528,-0.3491 -1.8263,2.6188 -6.5735,6.1642 -3.215,9.4464 m 16.755,-37.773 c 2.2786,20.844 -19.419,44.828 -40.807,35.221 -20.835,-5.5047 -27.737,-42.216 -3.2122,-47.345 18.972,-6.036 38.851,-0.69951 58.235,-2.1152 -4.2031,5.1933 -13.631,6.4451 -14.216,14.24 z m 74.341,15.703 c -8.7553,-21.595 -34.379,-26.613 -55.03,-28.92 -21.273,9.4504 -6.4306,42.775 9.17,50.351 16.074,6.5991 41.344,3.7241 46.341,-15.856 0.0923,-1.8888 -0.0728,-3.7285 -0.48115,-5.5751 z m -52.7,-8.233 c 23.617,14.796 -10.637,42.204 -25.674,23.393 -18.227,-1.8712 -45.135,-21.149 -28.941,-40.531 16.335,-18.354 54.4,-10.009 54.615,17.138 z m -3.865,-33.932 c -17.977,-7.202 -42.967,5.83 -57.279,-3.144 1.0372,15.517 26.923,6.7759 38.563,10.393 6.8211,-0.10446 13.956,-2.0954 18.715,-7.2487 z m -21.086,17.742 c 11.85,14.154 4.816,-19.381 -5.0579,-5.8881 -17.216,2.1195 -36.382,23.976 -52.433,7.502 17.363,11.571 37.739,7.4091 54.494,-1.7326 l 2.9972,0.11879 z m -18.056,7.8934 c -16.499,-1.3476 -34.865,-9.5673 -50.618,-1.9855 21.217,0.18136 41.513,7.6657 62.07,11.169 22.451,-7.951 -2.2077,-15.058 -11.452,-9.1833 m 26.218,30.629 c 23.52,5.1008 4.1011,-34.453 -9.9412,-17.532 -19.92,4.527 -37.909,26.954 -59.643,16.244 -18.149,-14.983 17.284,-36.386 26.855,-16.443 13.433,7.4307 26.491,18.333 42.73,17.731 z m -30.359,-17.296 c -15.824,-16.087 -43.937,-18.18 -61.611,-3.938 5.0011,26.768 36.091,16.141 53.019,10.706 3.7334,0.14161 13.436,-0.57891 8.5923,-6.7681 m 14.216,13.702 c -22.171,-6.6319 -42.575,11.558 -64.781,7.445 -19.065,12.97 -15.767,-26.492 1.3243,-7.4342 0.94476,10.289 1.7657,24.44 16.357,16.322 16.356,-1.999 40.021,2.1947 48.923,-15.236 l -1.8231,-1.097 z m -55.911,13.637 c -17.203,6.4099 -35.492,-1.5715 -52.997,0.71663 6.083,6.7713 22.406,14.043 34.463,15.895 8.066,6.4151 41.01,-15.897 18.534,-16.612 z m 32.931,15.362 c -7.4105,-17.183 -28.213,-10.025 -41.74,-5.8256 -8.8359,4.5624 -19.743,-4.5756 -20.412,8.588 -9.5048,2.5785 -11.145,-3.5267 -0.0616,-1.7375 20.614,-0.12169 42.805,10.369 62.213,-1.0249 z m -17.461,13.403 c -19.46,-8.2299 -40.952,-3.6631 -61.033,-0.77256 19.444,-5.8241 45.28,-19.877 61.033,0.77256 z m 38.954,-34.279 c -21.054,7.8735 -34.415,32.872 -58.984,31.52 -24.545,-6.7946 -6.2423,-43.764 15.345,-37.236 23.025,-1.368 46.092,0.50671 69.125,-0.52618 -8.9316,-0.46508 -17.292,3.2309 -25.486,6.2428 z m 92.428,15.034 c -20.692,-17.154 -48.859,-19.413 -74.653,-19.576 6.1585,23.11 31.537,31.24 45.393,48.609 13.107,11.981 42.745,1.1154 36.633,-18.506 -1.6257,-3.9731 -4.3497,-7.5024 -7.3731,-10.526 z"
           inkscape:connector-curvature="0" />
      </g>
      <path
         style="opacity:0.61053;fill:url(#d-6);filter:url(#m)"
         id="path4329"
         d="m -1113,504.44 292.31,163.5 c 51.218,95.684 34.113,187.1 -40.592,192.66 l -352.51,-357.85 c 33.596,19.487 67.192,34.922 100.79,1.6897 z"
         transform="matrix(0.9371,0,0,0.70307,1290.1,-276.54)"
         inkscape:connector-curvature="0" />
      <path
         style="opacity:0.32105001;fill:url(#c-8);filter:url(#o)"
         id="path4331"
         d="m -1115.1,380.56 c 582.92,664.03 860.79,803.1 -37.878,736.29 -64.692,-247.13 -0.7378,-488.7 -2.4284,-727.66 l 40.306,-8.6329 z"
         transform="matrix(0.9561,0,0,0.67082,1196,-158.33)"
         inkscape:connector-curvature="0" />
      <path
         id="path4333"
         d="m 65.486,75.147 h 610.6 v 534.43 h -610.6 z"
         inkscape:connector-curvature="0"
         style="fill:none;stroke:#59450b;stroke-width:6.17199993;stroke-linecap:round" />
    </g>
    <g
       id="g4600"
       transform="matrix(-1.5471246,0,0,1.5471246,622.0722,-370.14657)">
      <path
         style="fill:url(#h-9);fill-rule:evenodd;filter:url(#i-3)"
         id="path4584"
         d="m 316.07,281.98 c -0.43848,0.0485 -0.86293,0.0963 -1.3033,0.16735 -14.091,2.2736 -23.673,15.315 -21.394,29.118 2.279,13.803 15.553,23.187 29.644,20.913 5.324,-0.85901 9.9974,-3.2451 13.637,-6.6441 l 29.694,21.536 c 3.1211,-0.43375 5.3252,-2.5465 6.6369,-6.3641 l -31.28,-21.377 -0.60163,0.70667 c 2.9989,-4.9494 4.3139,-10.898 3.3056,-17.007 -2.2073,-13.372 -14.746,-22.554 -28.338,-21.049 z m 0.11619,1.0566 c 13.018,-1.4415 25.056,7.3638 27.17,20.171 2.1822,13.221 -8.3072,25.742 -21.803,27.919 -13.4958,2.177 -24.913,-6.7908 -27.096,-20.011 -2.183,-13.2202 6.9914,-25.739 20.488,-27.917 0.42175,-0.0681 0.82103,-0.11586 1.241,-0.16234 z"
         inkscape:connector-curvature="0" />
      <path
         id="path4586"
         d="m 344.17,310.53 29.617,27.048 c -1.8924,3.876 -4.5006,5.8091 -7.81,5.8386 l -28.02,-27.098 6.2131,-5.7887 z"
         inkscape:connector-curvature="0"
         style="fill:#807d74;fill-rule:evenodd" />
      <path
         id="path4588"
         d="m 344.99,308.54 c -25.578,26.694 -58.357,-3.9253 -41.04,-28.541 -22.474,26.707 17.052,59.24 41.04,28.541 z"
         inkscape:connector-curvature="0"
         style="fill:#273f57;fill-opacity:0.99607999" />
      <path
         style="fill:url(#c-2);fill-rule:evenodd;stroke:#314e6c;stroke-width:1.13489997;stroke-opacity:0.99523998"
         id="path4590"
         d="m 349.3,294.36 c 0.43574,13.265 -10.536,24.367 -24.49,24.781 -13.954,0.414 -25.633,-10.015 -26.068,-23.281 -0.435,-13.266 10.536,-24.367 24.49,-24.781 13.954,-0.414 25.633,10.015 26.068,23.281 z"
         inkscape:connector-curvature="0" />
      <path
         style="fill:url(#g-9);fill-opacity:0.09091001;fill-rule:evenodd"
         id="path4592"
         d="m 334.58,277.67 c 3.5711,4.2824 -0.18987,12.776 -8.395,18.96 -8.20513,6.184 -17.763,7.7262 -21.334,3.4438 -3.571,-4.2824 0.18987,-12.776 8.3951,-18.96 8.20523,-6.184 17.763,-7.7263 21.334,-3.4438 z"
         inkscape:connector-curvature="0" />
      <path
         style="fill:url(#f-9);fill-opacity:0.55207998;fill-rule:evenodd"
         id="path4594"
         d="m 310.11,312.32 c 14.494,4.309 31.856,-4.4673 36.424,-18.217 4.4147,12.575 -23.28,39.532 -36.424,18.217 z"
         inkscape:connector-curvature="0" />
      <path
         style="fill:url(#e-6);fill-opacity:0.75;fill-rule:evenodd"
         id="path4596"
         d="m 339.59,316.19 4.6224,-4.3825 27.972,25.693 c 1.2331,3.3285 -0.44562,5.6816 -6.1006,4.8803 l -26.493,-26.19 z"
         inkscape:connector-curvature="0" />
      <path
         style="fill:url(#d-66);fill-rule:evenodd"
         id="path4598"
         d="m 338.94,316.82 4.6224,-4.3825 27.972,25.693 c 1.2331,3.3285 -0.44562,5.6816 -6.1006,4.8803 l -26.493,-26.19 z"
         inkscape:connector-curvature="0" />
    </g>
  </g>
  <style
     id="style4062"
     type="text/css">.st0{opacity:0.4;fill:url(#a);} .st1{fill:url(#g);} .st2{fill:url(#f);} .st3{fill:url(#e);} .st4{fill:url(#d);} .st5{opacity:0.2;fill:url(#b);} .st6{fill:#647698;} .st7{opacity:0.5;fill:url(#c);}</style>
  <style
     id="style4418"
     type="text/css">.st0{opacity:0.4;fill:url(#a);} .st1{fill:url(#g);} .st2{fill:url(#f);} .st3{fill:url(#e);} .st4{fill:url(#d);} .st5{opacity:0.2;fill:url(#b);} .st6{fill:#647698;} .st7{opacity:0.5;fill:url(#c);}</style>
</svg>
